<?xml version="1.0" encoding="UTF-8" standalone="no"?>
<svg
   viewBox="0 0 86.158902 71.499917"
   height="71.499916"
   width="86.158897"
   id="svg10975"
   version="1.1"
   sodipodi:docname="Music17.svg"
   inkscape:version="1.3.2 (091e20ef0f, 2023-11-25, custom)"
   xmlns:inkscape="http://www.inkscape.org/namespaces/inkscape"
   xmlns:sodipodi="http://sodipodi.sourceforge.net/DTD/sodipodi-0.dtd"
   xmlns="http://www.w3.org/2000/svg"
   xmlns:svg="http://www.w3.org/2000/svg"
   xmlns:rdf="http://www.w3.org/1999/02/22-rdf-syntax-ns#"
   xmlns:cc="http://creativecommons.org/ns#"
   xmlns:dc="http://purl.org/dc/elements/1.1/">
  <sodipodi:namedview
     id="namedview1"
     pagecolor="#ffffff"
     bordercolor="#000000"
     borderopacity="0.25"
     inkscape:showpageshadow="2"
     inkscape:pageopacity="0.0"
     inkscape:pagecheckerboard="0"
     inkscape:deskcolor="#d1d1d1"
     showgrid="false"
     inkscape:zoom="1.0437075"
     inkscape:cx="157.6112"
     inkscape:cy="275.93937"
     inkscape:window-width="2560"
     inkscape:window-height="1381"
     inkscape:window-x="0"
     inkscape:window-y="27"
     inkscape:window-maximized="1"
     inkscape:current-layer="svg10975" />
  <metadata
     id="metadata10981">
    <rdf:RDF>
      <cc:Work
         rdf:about="">
        <dc:format>image/svg+xml</dc:format>
        <dc:type
           rdf:resource="http://purl.org/dc/dcmitype/StillImage" />
        <dc:title />
      </cc:Work>
    </rdf:RDF>
  </metadata>
  <defs
     id="defs10979" />
  <rect
     y="130.06868"
     x="-904.77881"
     height="68.972"
     width="49.999763"
     id="rect11532"
     style="opacity:1;vector-effect:none;fill:none;fill-opacity:1;fill-rule:nonzero;stroke:none;stroke-width:3.77952766;stroke-linecap:butt;stroke-linejoin:miter;stroke-miterlimit:4;stroke-dasharray:none;stroke-dashoffset:0;stroke-opacity:1;paint-order:stroke fill markers" />
  <rect
     y="-59.862522"
     x="-329.52347"
     height="66.944"
     width="49.999668"
     id="rect11530"
     style="opacity:1;vector-effect:none;fill:none;fill-opacity:1;fill-rule:nonzero;stroke:none;stroke-width:3.77952766;stroke-linecap:butt;stroke-linejoin:miter;stroke-miterlimit:4;stroke-dasharray:none;stroke-dashoffset:0;stroke-opacity:1;paint-order:stroke fill markers" />
  <path
     style="opacity:1;vector-effect:none;fill:#000000;fill-opacity:1;fill-rule:nonzero;stroke:none;stroke-width:3.7795279;stroke-linecap:butt;stroke-linejoin:miter;stroke-miterlimit:4;stroke-dasharray:none;stroke-dashoffset:0;stroke-opacity:1;paint-order:stroke fill markers"
     d="M 1.5519912,22.399178 11.868036,-0.01051111 26.323621,0.06067629 V 55.907025 l 0.131422,1.636265 0.591368,1.422837 0.985605,0.711423 1.182724,0.711414 1.97122,0.853703 1.248451,0.284567 0.328521,0.426846 -0.06564,5.193354 -29.5682636,-0.07119 -0.06564,-4.908785 0.394238,-0.711415 0.8542026,-0.355706 2.1026232,-0.355707 1.3798632,-0.640284 1.4455591,-1.351688 0.394239,-1.06714 0.4599455,-35.855487 -0.5256505,-0.569135 -0.459955,0.213428 -3.4167693,3.130251 -1.0513221,0.284568 -2.8254023,-1.707405 z"
     id="path12116-0" />
  <path
     id="path19249"
     d="m 39.410044,-0.18743856 -3.89541,18.88647356 0.63165,0.904834 0.73717,0.112966 1.15778,-0.904472 1.47398,-2.488219 c 0,0 36.35625,-1.281425 34.53159,0.565574 -1.82466,1.846989 -3.5446,3.317659 -5.47454,5.54163 -1.92994,2.223982 -4.28157,4.599225 -5.79038,6.672407 -1.50882,2.073192 -3.12356,3.883113 -4.52708,6.220181 -1.40355,2.337067 -2.70244,4.109145 -4.21126,7.011676 -1.50881,2.902532 -3.43901,5.918573 -4.52671,8.708028 -1.0877,2.789434 -2.77264,5.692771 -3.26376,8.369119 -0.45653,2.487837 -1.2483,6.79993 -1.3702,7.463903 h 21.07307 c 0.0739,-3.487576 -0.36074,-6.19916 0.40553,-10.743628 0.80732,-4.787796 1.54362,-11.837064 2.42112,-14.362996 0.8775,-2.525932 1.57914,-5.692168 2.63211,-7.577241 1.05295,-1.885084 1.82455,-3.694138 3.15826,-5.654606 1.3337,-1.960468 3.08798,-3.920433 4.00058,-5.880901 0.91259,-1.960478 2.73726,-5.88091 2.73726,-5.88091 l 3.05312,-16.62452829 z"
     style="opacity:1;vector-effect:none;fill:#000000;fill-opacity:1;fill-rule:nonzero;stroke:none;stroke-width:3.77952766;stroke-linecap:butt;stroke-linejoin:miter;stroke-miterlimit:4;stroke-dasharray:none;stroke-dashoffset:0;stroke-opacity:1;paint-order:stroke fill markers" />
</svg>
