<?xml version="1.0" encoding="UTF-8" standalone="no"?>
<svg
   viewBox="0 0 49.999766 68.972001"
   height="68.972"
   width="49.999763"
   id="svg10975"
   version="1.1"
   sodipodi:docname="Music4.svg"
   inkscape:version="1.3.2 (091e20ef0f, 2023-11-25, custom)"
   xmlns:inkscape="http://www.inkscape.org/namespaces/inkscape"
   xmlns:sodipodi="http://sodipodi.sourceforge.net/DTD/sodipodi-0.dtd"
   xmlns="http://www.w3.org/2000/svg"
   xmlns:svg="http://www.w3.org/2000/svg"
   xmlns:rdf="http://www.w3.org/1999/02/22-rdf-syntax-ns#"
   xmlns:cc="http://creativecommons.org/ns#"
   xmlns:dc="http://purl.org/dc/elements/1.1/">
  <sodipodi:namedview
     id="namedview1"
     pagecolor="#ffffff"
     bordercolor="#000000"
     borderopacity="0.25"
     inkscape:showpageshadow="2"
     inkscape:pageopacity="0.0"
     inkscape:pagecheckerboard="0"
     inkscape:deskcolor="#d1d1d1"
     inkscape:zoom="2.1639216"
     inkscape:cx="69.549655"
     inkscape:cy="114.14462"
     inkscape:window-width="2560"
     inkscape:window-height="1381"
     inkscape:window-x="0"
     inkscape:window-y="27"
     inkscape:window-maximized="1"
     inkscape:current-layer="svg10975" />
  <metadata
     id="metadata10981">
    <rdf:RDF>
      <cc:Work
         rdf:about="">
        <dc:format>image/svg+xml</dc:format>
        <dc:type
           rdf:resource="http://purl.org/dc/dcmitype/StillImage" />
        <dc:title />
      </cc:Work>
    </rdf:RDF>
  </metadata>
  <defs
     id="defs10979" />
  <path
     id="path11528"
     d="M 0.05179239,49.150774 V 43.771835 L 2.3062482,41.117299 4.9129643,38.11348 7.5381772,34.394869 9.633242,30.149881 l 2.39536,-6.007638 2.113541,-6.007637 1.902206,-7.963609 1.056771,-5.8679248 0.493174,-4.12151258 23.530891,-0.20955957 -0.140894,2.93396235 -2.536274,3.9119431 -3.452131,4.8899335 -3.522587,4.610508 -4.368017,5.658355 -4.43847,5.448776 -6.340655,6.566489 -8.9473807,8.592318 v 1.257407 l 19.1628987,-0.20956 0.0705,-12.50427 15.217588,-15.368367 1.127233,-0.06991 v 27.732924 l 6.83382,-0.139713 v 6.007638 l -7.045176,0.209569 -0.0705,3.073666 0.422713,2.794259 1.127232,3.213388 1.972648,1.746392 1.972648,0.558862 1.902195,0.488985 -0.0705,4.680375 -31.069231,0.06991 -0.140914,-4.680375 2.39536,-0.209559 1.620398,-0.419149 2.113551,-1.39712 0.774963,-1.536832 0.634068,-2.58468 0.211357,-3.143542 -0.0705,-2.794239 z"
     style="opacity:1;vector-effect:none;fill:#000000;fill-opacity:1;fill-rule:nonzero;stroke:none;stroke-width:3.77952766;stroke-linecap:butt;stroke-linejoin:miter;stroke-miterlimit:4;stroke-dasharray:none;stroke-dashoffset:0;stroke-opacity:1;paint-order:stroke fill markers" />
  <rect
     y="5.9571818e-08"
     x="-141.09723"
     height="68.972"
     width="49.999763"
     id="rect11532"
     style="opacity:1;vector-effect:none;fill:none;fill-opacity:1;fill-rule:nonzero;stroke:none;stroke-width:3.77952766;stroke-linecap:butt;stroke-linejoin:miter;stroke-miterlimit:4;stroke-dasharray:none;stroke-dashoffset:0;stroke-opacity:1;paint-order:stroke fill markers" />
  <rect
     y="-187.50783"
     x="26.417896"
     height="66.944"
     width="49.999668"
     id="rect11530"
     style="opacity:1;vector-effect:none;fill:none;fill-opacity:1;fill-rule:nonzero;stroke:none;stroke-width:3.77952766;stroke-linecap:butt;stroke-linejoin:miter;stroke-miterlimit:4;stroke-dasharray:none;stroke-dashoffset:0;stroke-opacity:1;paint-order:stroke fill markers" />
  <rect
     style="opacity:1;vector-effect:none;fill:none;fill-opacity:1;fill-rule:nonzero;stroke:none;stroke-width:3.77952766;stroke-linecap:butt;stroke-linejoin:miter;stroke-miterlimit:4;stroke-dasharray:none;stroke-dashoffset:0;stroke-opacity:1;paint-order:stroke fill markers"
     id="rect11530-0"
     width="49.999668"
     height="66.944"
     x="415.3255"
     y="26.601145" />
</svg>
