<?xml version="1.0" encoding="UTF-8" standalone="no"?>
<svg
   viewBox="0 0 69.417804 72.060212"
   height="72.060211"
   width="69.417801"
   id="svg10975"
   version="1.1"
   sodipodi:docname="Music11.svg"
   inkscape:version="1.3.2 (091e20ef0f, 2023-11-25, custom)"
   xmlns:inkscape="http://www.inkscape.org/namespaces/inkscape"
   xmlns:sodipodi="http://sodipodi.sourceforge.net/DTD/sodipodi-0.dtd"
   xmlns="http://www.w3.org/2000/svg"
   xmlns:svg="http://www.w3.org/2000/svg"
   xmlns:rdf="http://www.w3.org/1999/02/22-rdf-syntax-ns#"
   xmlns:cc="http://creativecommons.org/ns#"
   xmlns:dc="http://purl.org/dc/elements/1.1/">
  <sodipodi:namedview
     id="namedview1"
     pagecolor="#ffffff"
     bordercolor="#000000"
     borderopacity="0.25"
     inkscape:showpageshadow="2"
     inkscape:pageopacity="0.0"
     inkscape:pagecheckerboard="0"
     inkscape:deskcolor="#d1d1d1"
     inkscape:zoom="1.0355923"
     inkscape:cx="-416.66976"
     inkscape:cy="193.12619"
     inkscape:window-width="2560"
     inkscape:window-height="1381"
     inkscape:window-x="0"
     inkscape:window-y="27"
     inkscape:window-maximized="1"
     inkscape:current-layer="svg10975" />
  <metadata
     id="metadata10981">
    <rdf:RDF>
      <cc:Work
         rdf:about="">
        <dc:format>image/svg+xml</dc:format>
        <dc:type
           rdf:resource="http://purl.org/dc/dcmitype/StillImage" />
        <dc:title />
      </cc:Work>
    </rdf:RDF>
  </metadata>
  <defs
     id="defs10979" />
  <rect
     y="23.923094"
     x="-854.58185"
     height="68.972"
     width="49.999763"
     id="rect11532"
     style="opacity:1;vector-effect:none;fill:none;fill-opacity:1;fill-rule:nonzero;stroke:none;stroke-width:3.77952766;stroke-linecap:butt;stroke-linejoin:miter;stroke-miterlimit:4;stroke-dasharray:none;stroke-dashoffset:0;stroke-opacity:1;paint-order:stroke fill markers" />
  <rect
     y="-166.0081"
     x="-279.32651"
     height="66.944"
     width="49.999668"
     id="rect11530"
     style="opacity:1;vector-effect:none;fill:none;fill-opacity:1;fill-rule:nonzero;stroke:none;stroke-width:3.77952766;stroke-linecap:butt;stroke-linejoin:miter;stroke-miterlimit:4;stroke-dasharray:none;stroke-dashoffset:0;stroke-opacity:1;paint-order:stroke fill markers" />
  <path
     style="opacity:1;vector-effect:none;fill:#000000;fill-opacity:1;fill-rule:nonzero;stroke:none;stroke-width:3.7795279;stroke-linecap:butt;stroke-linejoin:miter;stroke-miterlimit:4;stroke-dasharray:none;stroke-dashoffset:0;stroke-opacity:1;paint-order:stroke fill markers"
     d="M 0.14335847,23.55434 10.91997,0.1963044 26.020933,0.2705078 V 58.480211 l 0.13729,1.705513 0.617769,1.483041 1.029608,0.741531 1.235528,0.74152 2.059226,0.889831 1.304189,0.296611 0.343188,0.44491 -0.06857,5.413136 -30.8883561,-0.0742 -0.068566,-5.116526 0.411839,-0.74152 0.8923388,-0.37076 2.1964957,-0.37076 1.441468,-0.667381 1.5100974,-1.408892 0.4118393,-1.112291 0.4804788,-37.37285 -0.5491187,-0.593221 -0.4804896,0.22246 -3.5693134,3.262714 -1.0982583,0.296611 -2.9515443,-1.779663 z"
     id="path12116-0" />
  <path
     style="opacity:1;vector-effect:none;fill:#000000;fill-opacity:1;fill-rule:nonzero;stroke:none;stroke-width:3.7795279;stroke-linecap:butt;stroke-linejoin:miter;stroke-miterlimit:4;stroke-dasharray:none;stroke-dashoffset:0;stroke-opacity:1;paint-order:stroke fill markers"
     d="M 36.582832,23.473688 47.359444,0.11565217 62.460407,0.18985557 V 58.399559 l 0.13729,1.705513 0.617769,1.483041 1.029608,0.741531 1.235528,0.74152 2.059226,0.889831 1.304189,0.296611 0.343188,0.44491 -0.06857,5.413136 -30.888357,-0.0742 -0.06857,-5.116526 0.411839,-0.74152 0.892339,-0.37076 2.196496,-0.37076 1.441468,-0.667381 1.510097,-1.408892 0.411839,-1.112291 0.480479,-37.37285 -0.549119,-0.593221 -0.480489,0.22246 -3.569314,3.262714 -1.098258,0.296611 -2.951544,-1.779663 z"
     id="path12116-0-5" />
</svg>
