<?xml version="1.0" encoding="UTF-8" standalone="no"?>
<svg
   viewBox="0 0 49.999766 68.972001"
   height="68.972"
   width="49.999763"
   id="svg10975"
   version="1.1"
   sodipodi:docname="Music2.svg"
   inkscape:version="1.3.2 (091e20ef0f, 2023-11-25, custom)"
   xmlns:inkscape="http://www.inkscape.org/namespaces/inkscape"
   xmlns:sodipodi="http://sodipodi.sourceforge.net/DTD/sodipodi-0.dtd"
   xmlns="http://www.w3.org/2000/svg"
   xmlns:svg="http://www.w3.org/2000/svg"
   xmlns:rdf="http://www.w3.org/1999/02/22-rdf-syntax-ns#"
   xmlns:cc="http://creativecommons.org/ns#"
   xmlns:dc="http://purl.org/dc/elements/1.1/">
  <sodipodi:namedview
     id="namedview1"
     pagecolor="#ffffff"
     bordercolor="#000000"
     borderopacity="0.25"
     inkscape:showpageshadow="2"
     inkscape:pageopacity="0.0"
     inkscape:pagecheckerboard="0"
     inkscape:deskcolor="#d1d1d1"
     inkscape:zoom="1.0819608"
     inkscape:cx="24.49257"
     inkscape:cy="34.197173"
     inkscape:window-width="2560"
     inkscape:window-height="1381"
     inkscape:window-x="0"
     inkscape:window-y="27"
     inkscape:window-maximized="1"
     inkscape:current-layer="svg10975" />
  <metadata
     id="metadata10981">
    <rdf:RDF>
      <cc:Work
         rdf:about="">
        <dc:format>image/svg+xml</dc:format>
        <dc:type
           rdf:resource="http://purl.org/dc/dcmitype/StillImage" />
        <dc:title />
      </cc:Work>
    </rdf:RDF>
  </metadata>
  <defs
     id="defs10979" />
  <rect
     y="0"
     x="1.3183593e-07"
     height="68.972"
     width="49.999763"
     id="rect11532"
     style="opacity:1;vector-effect:none;fill:none;fill-opacity:1;fill-rule:nonzero;stroke:none;stroke-width:3.77952766;stroke-linecap:butt;stroke-linejoin:miter;stroke-miterlimit:4;stroke-dasharray:none;stroke-dashoffset:0;stroke-opacity:1;paint-order:stroke fill markers" />
  <rect
     y="-187.50783"
     x="26.417896"
     height="66.944"
     width="49.999668"
     id="rect11530"
     style="opacity:1;vector-effect:none;fill:none;fill-opacity:1;fill-rule:nonzero;stroke:none;stroke-width:3.77952766;stroke-linecap:butt;stroke-linejoin:miter;stroke-miterlimit:4;stroke-dasharray:none;stroke-dashoffset:0;stroke-opacity:1;paint-order:stroke fill markers" />
  <path
     style="opacity:1;vector-effect:none;fill:#000000;fill-opacity:1;fill-rule:nonzero;stroke:none;stroke-width:3.77952766;stroke-linecap:butt;stroke-linejoin:miter;stroke-miterlimit:4;stroke-dasharray:none;stroke-dashoffset:0;stroke-opacity:1;paint-order:stroke fill markers"
     d="M 15.887184,27.51949 C 10.643483,28.72702 4.2366558,26.15703 2.6959429,20.56234 1.0222481,14.68265 4.3286211,8.24883 9.2042346,5.0425301 c 8.2071514,-5.61537 19.1072164,-6.45522 28.3256354,-3.07163 4.937173,1.23229 8.697059,5.39242 10.834238,9.9067799 1.06,3.94257 1.16117,8.20879 0.25972,12.18455 -1.370993,3.54413 -4.847912,5.47732 -7.276112,8.18135 -6.686341,5.86751 -15.5635,7.75625 -23.261047,11.75711 -2.678645,1.57326 -5.169465,3.52993 -7.148233,5.96204 5.340937,0.45382 10.719695,0.23679 16.077113,0.44028 l 20.04839,0.36256 c 3.327142,-1.24007 3.353339,-0.0442 2.55589,3.37409 -1.086728,4.29506 -2.308404,8.553 -3.452355,12.83234 H 1.2964418e-7 C 1.1768642,61.065 1.6314294,54.55179 5.7631196,49.83162 9.4848014,44.63618 14.332536,40.38792 19.726526,37.07569 c 3.086746,-2.2288 6.425836,-4.22929 9.221178,-6.79477 2.427811,-3.64524 5.213172,-7.58208 4.887744,-12.22199 0.337996,-4.02239 -0.39157,-9.07077 -4.286479,-11.0989199 -4.455299,-1.64069 -9.638798,-1.65272 -14.001266,0.27969 -3.028855,2.7653799 3.149269,3.8267299 4.314273,5.8193599 2.515248,2.77969 2.496111,7.19422 0.912435,10.41727 -1.099424,1.87254 -2.895312,3.27407 -4.887227,4.04316 z"
     id="path10970-2" />
  <rect
     style="opacity:1;vector-effect:none;fill:none;fill-opacity:1;fill-rule:nonzero;stroke:none;stroke-width:3.77952766;stroke-linecap:butt;stroke-linejoin:miter;stroke-miterlimit:4;stroke-dasharray:none;stroke-dashoffset:0;stroke-opacity:1;paint-order:stroke fill markers"
     id="rect11530-0"
     width="49.999668"
     height="66.944"
     x="556.42273"
     y="26.601145" />
</svg>
