<?xml version="1.0" encoding="UTF-8" standalone="no"?>
<svg
   viewBox="0 0 86.158902 71.499917"
   height="71.499916"
   width="86.158897"
   id="svg10975"
   version="1.1"
   sodipodi:docname="Music14.svg"
   inkscape:version="1.3.2 (091e20ef0f, 2023-11-25, custom)"
   xmlns:inkscape="http://www.inkscape.org/namespaces/inkscape"
   xmlns:sodipodi="http://sodipodi.sourceforge.net/DTD/sodipodi-0.dtd"
   xmlns="http://www.w3.org/2000/svg"
   xmlns:svg="http://www.w3.org/2000/svg"
   xmlns:rdf="http://www.w3.org/1999/02/22-rdf-syntax-ns#"
   xmlns:cc="http://creativecommons.org/ns#"
   xmlns:dc="http://purl.org/dc/elements/1.1/">
  <sodipodi:namedview
     id="namedview1"
     pagecolor="#ffffff"
     bordercolor="#000000"
     borderopacity="0.25"
     inkscape:showpageshadow="2"
     inkscape:pageopacity="0.0"
     inkscape:pagecheckerboard="0"
     inkscape:deskcolor="#d1d1d1"
     inkscape:zoom="1.0437075"
     inkscape:cx="-284.08342"
     inkscape:cy="148.50904"
     inkscape:window-width="2560"
     inkscape:window-height="1381"
     inkscape:window-x="0"
     inkscape:window-y="27"
     inkscape:window-maximized="1"
     inkscape:current-layer="svg10975" />
  <metadata
     id="metadata10981">
    <rdf:RDF>
      <cc:Work
         rdf:about="">
        <dc:format>image/svg+xml</dc:format>
        <dc:type
           rdf:resource="http://purl.org/dc/dcmitype/StillImage" />
        <dc:title />
      </cc:Work>
    </rdf:RDF>
  </metadata>
  <defs
     id="defs10979" />
  <path
     id="path11528"
     d="m 34.105516,49.787172 v -5.439141 l 2.279692,-2.684239 2.635884,-3.037438 2.654601,-3.760229 2.118508,-4.292499 2.422169,-6.074877 2.137194,-6.074877 1.9235,-8.052738 1.068597,-5.9335924 0.498689,-4.16763748 23.794246,-0.21190537 -0.142467,2.96679655 -2.564666,3.9557216 -3.490766,4.9446671 -3.562004,4.662101 -4.416907,5.721687 -4.488144,5.509752 -6.411614,6.639982 -9.047519,8.688484 v 1.271483 l 19.37736,-0.211905 0.07129,-12.644217 15.387903,-15.540371 1.139846,-0.07068 v 28.043314 l 6.910304,-0.141284 v 6.074877 l -7.124019,0.211916 -0.07129,3.10807 0.427441,2.825523 1.139846,3.249354 1.994727,1.765935 1.994728,0.565125 1.923479,0.494452 -0.07129,4.732763 -31.416954,0.07068 -0.142487,-4.732762 2.422169,-0.211906 1.638535,-0.423841 2.137205,-1.412756 0.783633,-1.55403 0.641167,-2.613608 0.213725,-3.178722 -0.07129,-2.825513 z"
     style="opacity:1;vector-effect:none;fill:#000000;fill-opacity:1;fill-rule:nonzero;stroke:none;stroke-width:3.77952743;stroke-linecap:butt;stroke-linejoin:miter;stroke-miterlimit:4;stroke-dasharray:none;stroke-dashoffset:0;stroke-opacity:1;paint-order:stroke fill markers" />
  <rect
     y="130.06868"
     x="-904.77881"
     height="68.972"
     width="49.999763"
     id="rect11532"
     style="opacity:1;vector-effect:none;fill:none;fill-opacity:1;fill-rule:nonzero;stroke:none;stroke-width:3.77952766;stroke-linecap:butt;stroke-linejoin:miter;stroke-miterlimit:4;stroke-dasharray:none;stroke-dashoffset:0;stroke-opacity:1;paint-order:stroke fill markers" />
  <rect
     y="-59.862522"
     x="-329.52347"
     height="66.944"
     width="49.999668"
     id="rect11530"
     style="opacity:1;vector-effect:none;fill:none;fill-opacity:1;fill-rule:nonzero;stroke:none;stroke-width:3.77952766;stroke-linecap:butt;stroke-linejoin:miter;stroke-miterlimit:4;stroke-dasharray:none;stroke-dashoffset:0;stroke-opacity:1;paint-order:stroke fill markers" />
  <path
     style="opacity:1;vector-effect:none;fill:#000000;fill-opacity:1;fill-rule:nonzero;stroke:none;stroke-width:3.7795279;stroke-linecap:butt;stroke-linejoin:miter;stroke-miterlimit:4;stroke-dasharray:none;stroke-dashoffset:0;stroke-opacity:1;paint-order:stroke fill markers"
     d="M 1.5519912,22.399178 11.868036,-0.01051111 26.323621,0.06067629 V 55.907025 l 0.131422,1.636265 0.591368,1.422837 0.985605,0.711423 1.182724,0.711414 1.97122,0.853703 1.248451,0.284567 0.328521,0.426846 -0.06564,5.193354 -29.5682636,-0.07119 -0.06564,-4.908785 0.394238,-0.711415 0.8542026,-0.355706 2.1026232,-0.355707 1.3798632,-0.640284 1.4455591,-1.351688 0.394239,-1.06714 0.4599455,-35.855487 -0.5256505,-0.569135 -0.459955,0.213428 -3.4167693,3.130251 -1.0513221,0.284568 -2.8254023,-1.707405 z"
     id="path12116-0" />
</svg>
