<?xml version="1.0" encoding="UTF-8" standalone="no"?>
<svg
   viewBox="0 0 50.000002 69.000001"
   height="69"
   width="50"
   id="svg10975"
   version="1.1"
   sodipodi:docname="Music0.svg"
   inkscape:version="1.3.2 (091e20ef0f, 2023-11-25, custom)"
   xmlns:inkscape="http://www.inkscape.org/namespaces/inkscape"
   xmlns:sodipodi="http://sodipodi.sourceforge.net/DTD/sodipodi-0.dtd"
   xmlns="http://www.w3.org/2000/svg"
   xmlns:svg="http://www.w3.org/2000/svg"
   xmlns:rdf="http://www.w3.org/1999/02/22-rdf-syntax-ns#"
   xmlns:cc="http://creativecommons.org/ns#"
   xmlns:dc="http://purl.org/dc/elements/1.1/">
  <sodipodi:namedview
     id="namedview1"
     pagecolor="#ffffff"
     bordercolor="#000000"
     borderopacity="0.25"
     inkscape:showpageshadow="2"
     inkscape:pageopacity="0.0"
     inkscape:pagecheckerboard="0"
     inkscape:deskcolor="#d1d1d1"
     inkscape:zoom="1.0815217"
     inkscape:cx="-48.542713"
     inkscape:cy="-49.929648"
     inkscape:window-width="2560"
     inkscape:window-height="1381"
     inkscape:window-x="0"
     inkscape:window-y="27"
     inkscape:window-maximized="1"
     inkscape:current-layer="svg10975" />
  <metadata
     id="metadata10981">
    <rdf:RDF>
      <cc:Work
         rdf:about="">
        <dc:format>image/svg+xml</dc:format>
        <dc:type
           rdf:resource="http://purl.org/dc/dcmitype/StillImage" />
      </cc:Work>
    </rdf:RDF>
  </metadata>
  <defs
     id="defs10979" />
  <rect
     y="14.722198"
     x="-906.22137"
     height="68.972"
     width="49.999763"
     id="rect11532"
     style="opacity:1;vector-effect:none;fill:none;fill-opacity:1;fill-rule:nonzero;stroke:none;stroke-width:3.77952766;stroke-linecap:butt;stroke-linejoin:miter;stroke-miterlimit:4;stroke-dasharray:none;stroke-dashoffset:0;stroke-opacity:1;paint-order:stroke fill markers" />
  <rect
     y="-175.20901"
     x="-330.96603"
     height="66.944"
     width="49.999668"
     id="rect11530"
     style="opacity:1;vector-effect:none;fill:none;fill-opacity:1;fill-rule:nonzero;stroke:none;stroke-width:3.77952766;stroke-linecap:butt;stroke-linejoin:miter;stroke-miterlimit:4;stroke-dasharray:none;stroke-dashoffset:0;stroke-opacity:1;paint-order:stroke fill markers" />
  <path
     id="path19291"
     d="M 24.507812 0.140625 C 21.1656 0.31419328 17.872456 1.4925918 14.980469 3.4667969 C 12.088482 5.4410019 9.599073 8.2028392 7.6972656 11.433594 C 6.135576 14.086563 4.9696546 17.04405 4.1015625 20.103516 C 2.8402306 24.548899 2.1989372 29.221653 2.0605469 33.904297 C 1.8962844 39.462365 2.4586092 45.137857 4.3925781 50.214844 C 6.8962203 56.787316 11.701951 62.078741 17.414062 64.701172 C 22.447908 67.012212 28.223247 67.250269 33.253906 64.929688 C 39.325755 62.128818 43.911386 55.825129 46.371094 48.732422 C 49.120682 40.803827 49.425205 31.823738 47.634766 23.525391 C 46.046778 16.16537 42.697663 9.1116568 37.431641 4.703125 C 33.700922 1.579896 29.085669 -0.09711291 24.507812 0.140625 z M 25.564453 5.90625 C 26.976603 5.9621472 28.297827 6.8531819 29.255859 8.0722656 C 30.787189 10.020862 31.445444 12.683065 31.976562 15.259766 C 34.228389 26.184422 35.050458 37.665177 33.142578 48.679688 C 32.518598 52.28203 31.534659 55.965648 29.353516 58.603516 C 28.872411 59.185363 28.335709 59.710747 27.730469 60.101562 C 27.125228 60.492378 26.448256 60.74645 25.757812 60.771484 C 24.76017 60.807658 23.785238 60.366252 22.939453 59.744141 C 20.844881 58.203492 19.463386 55.604089 18.566406 52.900391 C 17.012243 48.215793 16.723536 43.098163 16.623047 38.072266 C 16.501142 31.975278 16.632284 25.853917 17.400391 19.822266 C 17.878101 16.07099 18.651467 12.232024 20.607422 9.2128906 C 21.205308 8.2900179 21.912947 7.453812 22.753906 6.8457031 C 23.594865 6.2375943 24.577291 5.8671751 25.564453 5.90625 z "
     style="opacity:1;vector-effect:none;fill:#000000;fill-opacity:1;fill-rule:nonzero;stroke:none;stroke-width:3.7795279;stroke-linecap:butt;stroke-linejoin:miter;stroke-miterlimit:4;stroke-dasharray:none;stroke-dashoffset:0;stroke-opacity:1;paint-order:stroke fill markers" />
</svg>
