<?xml version="1.0" encoding="UTF-8" standalone="no"?>
<svg
   viewBox="0 0 86.158902 71.499917"
   height="71.499916"
   width="86.158897"
   id="svg10975"
   version="1.1"
   sodipodi:docname="Music12.svg"
   inkscape:version="1.3.2 (091e20ef0f, 2023-11-25, custom)"
   xmlns:inkscape="http://www.inkscape.org/namespaces/inkscape"
   xmlns:sodipodi="http://sodipodi.sourceforge.net/DTD/sodipodi-0.dtd"
   xmlns="http://www.w3.org/2000/svg"
   xmlns:svg="http://www.w3.org/2000/svg"
   xmlns:rdf="http://www.w3.org/1999/02/22-rdf-syntax-ns#"
   xmlns:cc="http://creativecommons.org/ns#"
   xmlns:dc="http://purl.org/dc/elements/1.1/">
  <sodipodi:namedview
     id="namedview1"
     pagecolor="#ffffff"
     bordercolor="#000000"
     borderopacity="0.25"
     inkscape:showpageshadow="2"
     inkscape:pageopacity="0.0"
     inkscape:pagecheckerboard="0"
     inkscape:deskcolor="#d1d1d1"
     inkscape:zoom="1.4760253"
     inkscape:cx="-400.06088"
     inkscape:cy="133.46654"
     inkscape:window-width="2560"
     inkscape:window-height="1381"
     inkscape:window-x="0"
     inkscape:window-y="27"
     inkscape:window-maximized="1"
     inkscape:current-layer="svg10975" />
  <metadata
     id="metadata10981">
    <rdf:RDF>
      <cc:Work
         rdf:about="">
        <dc:format>image/svg+xml</dc:format>
        <dc:type
           rdf:resource="http://purl.org/dc/dcmitype/StillImage" />
        <dc:title />
      </cc:Work>
    </rdf:RDF>
  </metadata>
  <defs
     id="defs10979" />
  <rect
     y="130.06868"
     x="-904.77881"
     height="68.972"
     width="49.999763"
     id="rect11532"
     style="opacity:1;vector-effect:none;fill:none;fill-opacity:1;fill-rule:nonzero;stroke:none;stroke-width:3.77952766;stroke-linecap:butt;stroke-linejoin:miter;stroke-miterlimit:4;stroke-dasharray:none;stroke-dashoffset:0;stroke-opacity:1;paint-order:stroke fill markers" />
  <rect
     y="-59.862522"
     x="-329.52347"
     height="66.944"
     width="49.999668"
     id="rect11530"
     style="opacity:1;vector-effect:none;fill:none;fill-opacity:1;fill-rule:nonzero;stroke:none;stroke-width:3.77952766;stroke-linecap:butt;stroke-linejoin:miter;stroke-miterlimit:4;stroke-dasharray:none;stroke-dashoffset:0;stroke-opacity:1;paint-order:stroke fill markers" />
  <path
     style="opacity:1;vector-effect:none;fill:#000000;fill-opacity:1;fill-rule:nonzero;stroke:none;stroke-width:3.7795279;stroke-linecap:butt;stroke-linejoin:miter;stroke-miterlimit:4;stroke-dasharray:none;stroke-dashoffset:0;stroke-opacity:1;paint-order:stroke fill markers"
     d="M 1.5519912,22.399178 11.868036,-0.01051111 26.323621,0.06067629 V 55.907025 l 0.131422,1.636265 0.591368,1.422837 0.985605,0.711423 1.182724,0.711414 1.97122,0.853703 1.248451,0.284567 0.328521,0.426846 -0.06564,5.193354 -29.5682636,-0.07119 -0.06564,-4.908785 0.394238,-0.711415 0.8542026,-0.355706 2.1026232,-0.355707 1.3798632,-0.640284 1.4455591,-1.351688 0.394239,-1.06714 0.4599455,-35.855487 -0.5256505,-0.569135 -0.459955,0.213428 -3.4167693,3.130251 -1.0513221,0.284568 -2.8254023,-1.707405 z"
     id="path12116-0" />
  <path
     style="opacity:1;vector-effect:none;fill:#000000;fill-opacity:1;fill-rule:nonzero;stroke:none;stroke-width:3.77952766;stroke-linecap:butt;stroke-linejoin:miter;stroke-miterlimit:4;stroke-dasharray:none;stroke-dashoffset:0;stroke-opacity:1;paint-order:stroke fill markers"
     d="m 51.321204,27.694924 c -5.243699,1.20753 -11.650519,-1.36246 -13.191239,-6.95715 -1.67369,-5.87969 1.63268,-12.3135099 6.5083,-15.5198099 8.207149,-5.61536998 19.107209,-6.45522 28.325629,-3.07163 4.93718,1.23229 8.69706,5.39242 10.83424,9.9067799 1.06,3.94257 1.16117,8.20879 0.25972,12.18455 -1.37099,3.54413 -4.84791,5.47732 -7.27611,8.18135 -6.68634,5.86751 -15.5635,7.75625 -23.26105,11.75711 -2.67865,1.57326 -5.169469,3.52993 -7.148229,5.96204 5.340929,0.45382 10.719689,0.23679 16.077109,0.44028 l 20.04839,0.36256 c 3.32715,-1.24007 3.35334,-0.0442 2.55589,3.37409 -1.08672,4.29506 -2.3084,8.553 -3.45235,12.83234 H 35.434025 c 1.17686,-5.907 1.63143,-12.42021 5.76312,-17.14038 3.72168,-5.19544 8.569419,-9.4437 13.963409,-12.75593 3.08674,-2.2288 6.42583,-4.22929 9.22117,-6.79477 2.42782,-3.64524 5.21318,-7.58208 4.88775,-12.22199 0.33799,-4.02239 -0.39157,-9.0707699 -4.28648,-11.0989199 -4.4553,-1.64069 -9.6388,-1.65272 -14.00127,0.27969 -3.028849,2.7653799 3.14927,3.8267299 4.31428,5.8193599 2.51524,2.77969 2.49611,7.19422 0.91243,10.41727 -1.09942,1.87254 -2.89531,3.27407 -4.88723,4.04316 z"
     id="path10970-2" />
</svg>
