<?xml version="1.0" encoding="UTF-8" standalone="no"?>
<svg
   version="1.1"
   id="svg10975"
   width="49.999763"
   height="68.972"
   viewBox="0 0 49.999766 68.972001"
   sodipodi:docname="Music8.svg"
   inkscape:version="1.3.2 (091e20ef0f, 2023-11-25, custom)"
   xmlns:inkscape="http://www.inkscape.org/namespaces/inkscape"
   xmlns:sodipodi="http://sodipodi.sourceforge.net/DTD/sodipodi-0.dtd"
   xmlns="http://www.w3.org/2000/svg"
   xmlns:svg="http://www.w3.org/2000/svg"
   xmlns:rdf="http://www.w3.org/1999/02/22-rdf-syntax-ns#"
   xmlns:cc="http://creativecommons.org/ns#"
   xmlns:dc="http://purl.org/dc/elements/1.1/">
  <sodipodi:namedview
     id="namedview1"
     pagecolor="#ffffff"
     bordercolor="#000000"
     borderopacity="0.25"
     inkscape:showpageshadow="2"
     inkscape:pageopacity="0.0"
     inkscape:pagecheckerboard="0"
     inkscape:deskcolor="#d1d1d1"
     inkscape:zoom="1.0819608"
     inkscape:cx="267.56977"
     inkscape:cy="189.47082"
     inkscape:window-width="2560"
     inkscape:window-height="1381"
     inkscape:window-x="0"
     inkscape:window-y="27"
     inkscape:window-maximized="1"
     inkscape:current-layer="svg10975" />
  <metadata
     id="metadata10981">
    <rdf:RDF>
      <cc:Work
         rdf:about="">
        <dc:format>image/svg+xml</dc:format>
        <dc:type
           rdf:resource="http://purl.org/dc/dcmitype/StillImage" />
        <dc:title />
      </cc:Work>
    </rdf:RDF>
  </metadata>
  <defs
     id="defs10979" />
  <rect
     style="opacity:1;vector-effect:none;fill:none;fill-opacity:1;fill-rule:nonzero;stroke:none;stroke-width:3.77952766;stroke-linecap:butt;stroke-linejoin:miter;stroke-miterlimit:4;stroke-dasharray:none;stroke-dashoffset:0;stroke-opacity:1;paint-order:stroke fill markers"
     id="rect11532"
     width="49.999763"
     height="68.972"
     x="-410.173"
     y="1.6560261" />
  <rect
     style="opacity:1;vector-effect:none;fill:none;fill-opacity:1;fill-rule:nonzero;stroke:none;stroke-width:3.77952766;stroke-linecap:butt;stroke-linejoin:miter;stroke-miterlimit:4;stroke-dasharray:none;stroke-dashoffset:0;stroke-opacity:1;paint-order:stroke fill markers"
     id="rect11530"
     width="49.999668"
     height="66.944"
     x="26.417896"
     y="-187.50783" />
  <g
     id="layer2">
    <path
       style="opacity:1;vector-effect:none;fill:none;fill-opacity:1;fill-rule:nonzero;stroke:none;stroke-width:3.77952814;stroke-linecap:butt;stroke-linejoin:miter;stroke-miterlimit:4;stroke-dasharray:none;stroke-dashoffset:0;stroke-opacity:1;paint-order:stroke fill markers"
       d="m 30.193812,27.090707 c -0.828535,-0.03933 -1.627071,-0.346804 -2.35471,-0.756875 -0.72764,-0.410091 -1.395068,-0.922585 -2.076392,-1.409801 -1.813333,-1.296727 -3.73844,-2.422973 -5.532151,-3.748325 -1.669178,-1.233341 -3.235154,-2.65399 -4.410174,-4.389591 -0.852616,-1.259393 -1.501114,-2.728601 -1.49483,-4.263967 0.0061,-1.507395 0.667429,-2.9849777 1.724814,-4.0270908 0.864665,-0.8521718 1.969443,-1.4166109 3.120748,-1.7528831 1.151305,-0.3362721 2.352577,-0.4540178 3.548525,-0.4975489 2.040493,-0.074274 4.091651,0.064198 6.094322,0.4737741 2.209171,0.4518007 4.382404,1.2489203 6.209324,2.6057676 1.398989,1.0390251 2.601318,2.4463121 3.104662,4.1455291 0.522216,1.762959 0.253315,3.673694 -0.229965,5.448392 -0.404889,1.486827 -0.959449,2.936181 -1.724814,4.263987 -0.67133,1.164669 -1.524811,2.251185 -2.644713,2.961084 -0.633662,0.401658 -1.341046,0.674484 -2.069781,0.829109 -0.415728,0.08821 -0.840854,0.138571 -1.264865,0.118439 z"
       id="path19258" />
    <path
       style="opacity:1;vector-effect:none;fill:none;fill-opacity:1;fill-rule:nonzero;stroke:none;stroke-width:3.77952814;stroke-linecap:butt;stroke-linejoin:miter;stroke-miterlimit:4;stroke-dasharray:none;stroke-dashoffset:0;stroke-opacity:1;paint-order:stroke fill markers"
       d="m 18.235133,37.750635 c -0.360957,-0.07329 -0.738575,-0.04038 -1.090652,0.06964 -0.352059,0.110026 -0.679364,0.295454 -0.974248,0.522076 -0.589768,0.453226 -1.045585,1.062365 -1.499731,1.658715 -1.169888,1.536178 -2.38519,3.047888 -3.334627,4.737741 -0.975439,1.736116 -1.664257,3.680385 -1.724814,5.685309 -0.07189,2.380927 0.764346,4.753044 2.184764,6.632838 1.595033,2.110891 3.879751,3.598193 6.324306,4.500864 2.530576,0.934424 5.247318,1.274734 7.934138,1.184426 2.199831,-0.07396 4.457124,-0.457819 6.324307,-1.6582 1.797862,-1.15582 3.120517,-3.02344 3.794595,-5.093077 0.281604,-0.864623 0.456528,-1.771075 0.456913,-2.68307 0,-0.911995 -0.177557,-1.830364 -0.571915,-2.646904 -0.332071,-0.687589 -0.807875,-1.288274 -1.264846,-1.895096 -0.668217,-0.887349 -1.306722,-1.80366 -2.069781,-2.605748 -1.254852,-1.319037 -2.808317,-2.289984 -4.369527,-3.198 -1.732021,-1.007371 -3.496463,-1.955612 -5.289425,-2.842645 -1.327325,-0.812619 -2.712015,-1.525785 -4.139543,-2.131973 -0.224488,-0.09534 -0.451666,-0.188516 -0.689914,-0.236896 z"
       id="path19262" />
    <path
       id="path19254-0"
       d="m 25.901268,0.22106656 c -0.554264,0.0156891 -1.108522,0.050316 -1.660783,0.1015625 -0.875817,-0.05141 -1.754242,-0.05141 -2.630059,0 -4.844025,0.2843872 -9.550337,2.16476254 -13.4941074,5.09179654 -2.6699007,1.981585 -5.0859054,4.569543 -6.0604021,7.8183604 -0.7089311,2.363446 -0.6045007,4.92143 -0.1146034,7.34375 0.567906,2.808021 1.6547685,5.520423 3.3157388,7.816406 1.676849,2.317935 3.9709545,4.207846 6.6334211,5.09375 0.891126,0.296522 1.815006,0.479258 2.744663,0.591797 0.08152,0.0099 0.163601,0.01877 0.242805,0.04102 0.0792,0.02225 0.156738,0.05819 0.217553,0.115235 0.06083,0.05707 0.103352,0.137716 0.106833,0.222656 0.0017,0.04246 -0.0064,0.0853 -0.02525,0.123047 -0.01883,0.03777 -0.04743,0.06963 -0.08353,0.08984 -0.05393,0.03022 -0.123736,0.03204 -0.178704,0.0039 -0.933881,-0.105294 -1.884736,-0.0367 -2.795166,0.203125 -1.550716,0.408508 -2.9456515,1.296426 -4.2325701,2.28125 -2.2048885,1.687299 -4.1927123,3.722719 -5.6019867,6.158203 -1.67570425,2.895935 -2.48483594,6.383447 -1.94437885,9.712891 0.60895319,3.751413 2.89054255,7.078266 5.83119435,9.357422 2.9949869,2.321261 6.6235383,3.630114 10.2929723,4.382812 4.321341,0.886418 8.779642,1.043429 13.150295,0.472656 3.319819,-0.43353 6.613312,-1.294275 9.607291,-2.841797 2.569919,-1.328341 4.905784,-3.165312 6.746082,-5.449218 2.265143,-2.81115 3.754856,-6.307079 4.117966,-9.949219 0.264467,-2.652743 -0.07335,-5.391078 -1.144096,-7.816406 -0.891393,-2.019038 -2.2578,-3.769621 -3.65955,-5.449219 -1.165875,-1.396974 -2.437192,-2.814096 -4.116023,-3.435547 -0.355426,-0.131563 -0.734157,-0.229246 -1.029491,-0.472656 -0.08517,-0.0702 -0.162682,-0.153147 -0.221438,-0.248047 -0.05874,-0.0949 -0.09788,-0.202111 -0.106834,-0.314453 -0.01122,-0.139482 0.02531,-0.279979 0.08741,-0.404297 0.0621,-0.124318 0.148412,-0.233851 0.240863,-0.335938 0.334535,-0.369389 0.749373,-0.648328 1.144095,-0.947265 0.829161,-0.627964 1.584322,-1.356083 2.286247,-2.132813 1.755914,-1.943042 3.190389,-4.227308 4.003362,-6.751953 C 48.365806,18.22571 48.550053,15.54119 48.02756,12.996453 47.512065,10.485789 46.294837,8.1145286 44.482616,6.3636446 42.71143,4.6524126 40.456353,3.5852356 38.193007,2.6917697 35.820659,1.7552874 33.380982,0.97346246 30.873906,0.55895716 29.23127,0.28737786 27.56406,0.17399916 25.901268,0.22106656 Z M 24.391995,6.2288796 c 1.523215,0.02681 3.043749,0.183053 4.537532,0.490234 2.197082,0.451801 4.358083,1.248621 6.175006,2.605469 1.391333,1.0390254 2.587884,2.4453144 3.088474,4.1445314 0.519358,1.762959 0.251428,3.674521 -0.229208,5.449219 -0.402673,1.486827 -0.953995,2.935866 -1.715172,4.263671 -0.667656,1.164669 -1.516285,2.251039 -2.630059,2.960938 -0.630194,0.401658 -1.334235,0.675453 -2.058982,0.830078 -0.413453,0.08821 -0.835066,0.13732 -1.256757,0.117188 -0.824,-0.03933 -1.618921,-0.345789 -2.342578,-0.75586 -0.723658,-0.410091 -1.387214,-0.92294 -2.06481,-1.410156 -1.803409,-1.296727 -3.717085,-2.422695 -5.50098,-3.748047 -1.660043,-1.233341 -3.217433,-2.655024 -4.386022,-4.390625 -0.847951,-1.259393 -1.494156,-2.728306 -1.487906,-4.263672 0.0061,-1.507395 0.663573,-2.9852304 1.715171,-4.0273444 0.859933,-0.852171 1.959009,-1.415681 3.104014,-1.751953 1.145004,-0.336272 2.340004,-0.454516 3.529407,-0.498047 0.507331,-0.018567 1.015132,-0.024561 1.52287,-0.015624 z M 17.863466,37.717161 c 0.182529,-0.01282 0.366333,-0.0034 0.545825,0.0332 0.236944,0.04838 0.46242,0.140988 0.68568,0.236328 1.419716,0.606188 2.797904,1.320194 4.117965,2.132812 1.78315,0.887033 3.537575,1.834426 5.260118,2.841797 1.552666,0.908016 3.097246,1.880182 4.345231,3.199219 0.758883,0.802088 1.394422,1.71812 2.058982,2.605469 0.45447,0.606822 0.926503,1.206942 1.256757,1.894531 0.3922,0.81654 0.569134,1.73449 0.569134,2.646484 -3.83e-4,0.911995 -0.174468,1.818971 -0.454531,2.683594 -0.670389,2.069637 -1.98613,3.93793 -3.774153,5.09375 -1.856966,1.200381 -4.101818,1.584243 -6.28961,1.658203 -2.672117,0.09031 -5.37345,-0.251122 -7.890178,-1.185547 -2.431177,-0.90267 -4.703305,-2.389108 -6.28961,-4.5 -1.412644,-1.879793 -2.2450829,-4.251885 -2.1735863,-6.632812 0.060229,-2.004924 0.7450713,-3.949431 1.7151723,-5.685547 0.944241,-1.689853 2.154196,-3.202103 3.317682,-4.738281 0.451661,-0.59635 0.905251,-1.204977 1.491791,-1.658203 0.293271,-0.226622 0.617201,-0.411459 0.967333,-0.521485 0.175075,-0.05501 0.357468,-0.0907 0.539998,-0.103515 z"
       style="opacity:1;vector-effect:none;fill:#000000;fill-opacity:1;fill-rule:nonzero;stroke:none;stroke-width:3.77952814;stroke-linecap:butt;stroke-linejoin:miter;stroke-miterlimit:4;stroke-dasharray:none;stroke-dashoffset:0;stroke-opacity:1;paint-order:stroke fill markers" />
    <path
       style="opacity:1;vector-effect:none;fill:#000000;fill-opacity:1;fill-rule:nonzero;stroke:none;stroke-width:3.77952814;stroke-linecap:butt;stroke-linejoin:miter;stroke-miterlimit:4;stroke-dasharray:none;stroke-dashoffset:0;stroke-opacity:1;paint-order:stroke fill markers"
       d="m 13.468112,35.502025 c 1.027558,-0.491194 -0.480782,-2.502849 0.552465,-2.836448 0.625168,-0.201839 2.283372,-0.490898 2.589634,0.222426 0.344313,0.80195 0.458853,2.108575 -0.152439,2.79169 -0.941615,1.052229 -2.013472,-0.16096 -2.98966,-0.177668 z"
       id="path19276-7" />
  </g>
</svg>
