<?xml version="1.0" encoding="UTF-8" standalone="no"?>
<svg
   version="1.1"
   id="svg10975"
   width="86.158897"
   height="71.499916"
   viewBox="0 0 86.158902 71.499917"
   sodipodi:docname="Music18.svg"
   inkscape:version="1.3.2 (091e20ef0f, 2023-11-25, custom)"
   xmlns:inkscape="http://www.inkscape.org/namespaces/inkscape"
   xmlns:sodipodi="http://sodipodi.sourceforge.net/DTD/sodipodi-0.dtd"
   xmlns="http://www.w3.org/2000/svg"
   xmlns:svg="http://www.w3.org/2000/svg"
   xmlns:rdf="http://www.w3.org/1999/02/22-rdf-syntax-ns#"
   xmlns:cc="http://creativecommons.org/ns#"
   xmlns:dc="http://purl.org/dc/elements/1.1/">
  <sodipodi:namedview
     id="namedview1"
     pagecolor="#ffffff"
     bordercolor="#000000"
     borderopacity="0.25"
     inkscape:showpageshadow="2"
     inkscape:pageopacity="0.0"
     inkscape:pagecheckerboard="0"
     inkscape:deskcolor="#d1d1d1"
     inkscape:zoom="0.36900633"
     inkscape:cx="3819.7176"
     inkscape:cy="650.39534"
     inkscape:window-width="2560"
     inkscape:window-height="1381"
     inkscape:window-x="0"
     inkscape:window-y="27"
     inkscape:window-maximized="1"
     inkscape:current-layer="svg10975" />
  <metadata
     id="metadata10981">
    <rdf:RDF>
      <cc:Work
         rdf:about="">
        <dc:format>image/svg+xml</dc:format>
        <dc:type
           rdf:resource="http://purl.org/dc/dcmitype/StillImage" />
        <dc:title />
      </cc:Work>
    </rdf:RDF>
  </metadata>
  <defs
     id="defs10979" />
  <rect
     style="opacity:1;vector-effect:none;fill:none;fill-opacity:1;fill-rule:nonzero;stroke:none;stroke-width:3.77952766;stroke-linecap:butt;stroke-linejoin:miter;stroke-miterlimit:4;stroke-dasharray:none;stroke-dashoffset:0;stroke-opacity:1;paint-order:stroke fill markers"
     id="rect11532"
     width="49.999763"
     height="68.972"
     x="-904.77881"
     y="130.06868" />
  <rect
     style="opacity:1;vector-effect:none;fill:none;fill-opacity:1;fill-rule:nonzero;stroke:none;stroke-width:3.77952766;stroke-linecap:butt;stroke-linejoin:miter;stroke-miterlimit:4;stroke-dasharray:none;stroke-dashoffset:0;stroke-opacity:1;paint-order:stroke fill markers"
     id="rect11530"
     width="49.999668"
     height="66.944"
     x="-329.52347"
     y="-59.862522" />
  <path
     id="path12116-0"
     d="M 1.5519912,22.399178 11.868036,-0.01051111 26.323621,0.06067629 V 55.907025 l 0.131422,1.636265 0.591368,1.422837 0.985605,0.711423 1.182724,0.711414 1.97122,0.853703 1.248451,0.284567 0.328521,0.426846 -0.06564,5.193354 -29.5682636,-0.07119 -0.06564,-4.908785 0.394238,-0.711415 0.8542026,-0.355706 2.1026232,-0.355707 1.3798632,-0.640284 1.4455591,-1.351688 0.394239,-1.06714 0.4599455,-35.855487 -0.5256505,-0.569135 -0.459955,0.213428 -3.4167693,3.130251 -1.0513221,0.284568 -2.8254023,-1.707405 z"
     style="opacity:1;vector-effect:none;fill:#000000;fill-opacity:1;fill-rule:nonzero;stroke:none;stroke-width:3.7795279;stroke-linecap:butt;stroke-linejoin:miter;stroke-miterlimit:4;stroke-dasharray:none;stroke-dashoffset:0;stroke-opacity:1;paint-order:stroke fill markers" />
  <g
     id="layer3" />
  <g
     id="layer4">
    <path
       style="opacity:1;vector-effect:none;fill:none;fill-opacity:1;fill-rule:nonzero;stroke:none;stroke-width:3.77952814;stroke-linecap:butt;stroke-linejoin:miter;stroke-miterlimit:4;stroke-dasharray:none;stroke-dashoffset:0;stroke-opacity:1;paint-order:stroke fill markers"
       d="m 65.711159,27.06685 c -0.828535,-0.03933 -1.627071,-0.346804 -2.35471,-0.756875 -0.72764,-0.410091 -1.395068,-0.922585 -2.076392,-1.409801 -1.813333,-1.296727 -3.73844,-2.422973 -5.532151,-3.748325 -1.669178,-1.233341 -3.235154,-2.65399 -4.410174,-4.389591 -0.852616,-1.259393 -1.501114,-2.728601 -1.49483,-4.263967 0.0061,-1.507395 0.667429,-2.9849773 1.724814,-4.0270904 0.864665,-0.8521718 1.969443,-1.4166109 3.120748,-1.7528831 1.151305,-0.3362721 2.352577,-0.4540178 3.548525,-0.4975489 2.040493,-0.074274 4.091651,0.064198 6.094322,0.4737741 2.209171,0.4518007 4.382404,1.2489203 6.209324,2.6057676 1.398989,1.0390247 2.601318,2.4463117 3.104662,4.1455287 0.522216,1.762959 0.253315,3.673694 -0.229965,5.448392 -0.404889,1.486827 -0.959449,2.936181 -1.724814,4.263987 -0.67133,1.164669 -1.524811,2.251185 -2.644713,2.961084 -0.633662,0.401658 -1.341046,0.674484 -2.069781,0.829109 -0.415728,0.08821 -0.840854,0.138571 -1.264865,0.118439 z"
       id="path19258" />
    <path
       style="opacity:1;vector-effect:none;fill:none;fill-opacity:1;fill-rule:nonzero;stroke:none;stroke-width:3.77952814;stroke-linecap:butt;stroke-linejoin:miter;stroke-miterlimit:4;stroke-dasharray:none;stroke-dashoffset:0;stroke-opacity:1;paint-order:stroke fill markers"
       d="m 53.75248,37.726778 c -0.360957,-0.07329 -0.738575,-0.04038 -1.090652,0.06964 -0.352059,0.110026 -0.679364,0.295454 -0.974248,0.522076 -0.589768,0.453226 -1.045585,1.062365 -1.499731,1.658715 -1.169888,1.536178 -2.38519,3.047888 -3.334627,4.737741 -0.975439,1.736116 -1.664257,3.680385 -1.724814,5.685309 -0.07189,2.380927 0.764346,4.753044 2.184764,6.632838 1.595033,2.110891 3.879751,3.598193 6.324306,4.500864 2.530576,0.934424 5.247318,1.274734 7.934138,1.184426 2.199831,-0.07396 4.457124,-0.457819 6.324307,-1.6582 1.797862,-1.15582 3.120517,-3.02344 3.794595,-5.093077 0.281604,-0.864623 0.456528,-1.771075 0.456913,-2.68307 0,-0.911995 -0.177557,-1.830364 -0.571915,-2.646904 -0.332071,-0.687589 -0.807875,-1.288274 -1.264846,-1.895096 -0.668217,-0.887349 -1.306722,-1.80366 -2.069781,-2.605748 -1.254852,-1.319037 -2.808317,-2.289984 -4.369527,-3.198 -1.732021,-1.007371 -3.496463,-1.955612 -5.289425,-2.842645 -1.327325,-0.812619 -2.712015,-1.525785 -4.139543,-2.131973 -0.224488,-0.09534 -0.451666,-0.188516 -0.689914,-0.236896 z"
       id="path19262" />
    <path
       id="path19254-0"
       d="m 61.285062,0.19721 c -0.557314,0.0156891 -1.114622,0.050316 -1.669922,0.1015625 -0.880636,-0.05141 -1.763895,-0.05141 -2.644531,0 -4.87068,0.2843872 -9.602889,2.1647625 -13.56836,5.0917965 -2.684592,1.981585 -5.113891,4.569543 -6.09375,7.81836 -0.712832,2.363446 -0.607827,4.92143 -0.115234,7.34375 0.571031,2.808021 1.663874,5.520423 3.333984,7.816406 1.686076,2.317935 3.992805,4.207846 6.669922,5.09375 0.89603,0.296522 1.824993,0.479258 2.759766,0.591797 0.08197,0.0099 0.164501,0.01877 0.244141,0.04102 0.07964,0.02225 0.1576,0.05819 0.21875,0.115235 0.06117,0.05707 0.103921,0.137716 0.107421,0.222656 0.0017,0.04246 -0.0064,0.0853 -0.02539,0.123047 -0.01893,0.03777 -0.04769,0.06963 -0.08399,0.08984 -0.05423,0.03022 -0.124417,0.03204 -0.179687,0.0039 -0.93902,-0.105294 -1.895107,-0.0367 -2.810547,0.203125 -1.559249,0.408508 -2.96186,1.296426 -4.25586,2.28125 -2.217021,1.687299 -4.215783,3.722719 -5.632812,6.158203 -1.684925,2.895935 -2.498509,6.383447 -1.955078,9.712891 0.612304,3.751413 2.906448,7.078266 5.863281,9.357422 3.011467,2.321261 6.659985,3.630114 10.34961,4.382812 4.34512,0.886418 8.827953,1.043429 13.222656,0.472656 3.338086,-0.43353 6.649702,-1.294275 9.660156,-2.841797 2.58406,-1.328341 4.932778,-3.165312 6.783203,-5.449218 2.277607,-2.81115 3.775517,-6.307079 4.140625,-9.949219 0.265922,-2.652743 -0.07375,-5.391078 -1.150391,-7.816406 -0.896298,-2.019038 -2.270224,-3.769621 -3.679687,-5.449219 -1.172291,-1.396974 -2.450603,-2.814096 -4.138672,-3.435547 -0.357382,-0.131563 -0.738197,-0.229246 -1.035156,-0.472656 -0.08564,-0.0702 -0.163577,-0.153147 -0.222657,-0.248047 -0.05906,-0.0949 -0.09842,-0.202111 -0.107421,-0.314453 -0.01128,-0.139482 0.02545,-0.279979 0.08789,-0.404297 0.06244,-0.124318 0.149228,-0.233851 0.242188,-0.335938 0.336376,-0.369389 0.753496,-0.648328 1.15039,-0.947265 0.833724,-0.627964 1.59304,-1.356083 2.298828,-2.132813 1.765576,-1.943042 3.207944,-4.227308 4.025391,-6.751953 0.799092,-2.468008 0.984352,-5.152528 0.458984,-7.697265 C 83.014774,10.461932 81.790848,8.090672 79.968655,6.339788 78.187723,4.628556 75.920237,3.561379 73.644437,2.6679131 71.259035,1.7314308 68.805933,0.9496059 66.285062,0.5351006 c -1.651675,-0.2715793 -3.328059,-0.384958 -5,-0.3378906 z m -1.517578,6.007813 c 1.531596,0.02681 3.060497,0.183053 4.5625,0.490234 2.209171,0.451801 4.382064,1.248621 6.208984,2.605469 1.398989,1.039025 2.602124,2.445314 3.105469,4.144531 0.522216,1.762959 0.252811,3.674521 -0.230469,5.449219 -0.404889,1.486827 -0.959245,2.935866 -1.72461,4.263671 -0.67133,1.164669 -1.524629,2.251039 -2.644531,2.960938 -0.633662,0.401658 -1.341577,0.675453 -2.070312,0.830078 -0.415728,0.08821 -0.839661,0.13732 -1.263672,0.117188 -0.828535,-0.03933 -1.62783,-0.345789 -2.355469,-0.75586 -0.72764,-0.410091 -1.394847,-0.92294 -2.076171,-1.410156 -1.813333,-1.296727 -3.737539,-2.422695 -5.53125,-3.748047 -1.669178,-1.233341 -3.235137,-2.655024 -4.410157,-4.390625 -0.852616,-1.259393 -1.502377,-2.728306 -1.496093,-4.263672 0.0061,-1.507395 0.667224,-2.98523 1.724609,-4.027344 0.864665,-0.852171 1.969789,-1.415681 3.121094,-1.751953 1.151305,-0.336272 2.35288,-0.454516 3.548828,-0.498047 0.510123,-0.018567 1.020718,-0.024561 1.53125,-0.015624 z m -6.564453,31.488281 c 0.183533,-0.01282 0.368349,-0.0034 0.548828,0.0332 0.238248,0.04838 0.464965,0.140988 0.689453,0.236328 1.427528,0.606188 2.8133,1.320194 4.140625,2.132812 1.792962,0.887033 3.557041,1.834426 5.289062,2.841797 1.56121,0.908016 3.114289,1.880182 4.369141,3.199219 0.763059,0.802088 1.402095,1.71812 2.070312,2.605469 0.456971,0.606822 0.931601,1.206942 1.263672,1.894531 0.394358,0.81654 0.572266,1.73449 0.572266,2.646484 -3.85e-4,0.911995 -0.175428,1.818971 -0.457032,2.683594 -0.674078,2.069637 -1.997059,3.93793 -3.794921,5.09375 -1.867184,1.200381 -4.124388,1.584243 -6.324219,1.658203 -2.68682,0.09031 -5.403018,-0.251122 -7.933594,-1.185547 -2.444555,-0.90267 -4.729186,-2.389108 -6.324219,-4.5 -1.420418,-1.879793 -2.257437,-4.251885 -2.185547,-6.632812 0.06056,-2.004924 0.749171,-3.949431 1.72461,-5.685547 0.949437,-1.689853 2.16605,-3.202103 3.335938,-4.738281 0.454146,-0.59635 0.910232,-1.204977 1.5,-1.658203 0.294884,-0.226622 0.620597,-0.411459 0.972656,-0.521485 0.176038,-0.05501 0.359435,-0.0907 0.542969,-0.103515 z"
       style="opacity:1;vector-effect:none;fill:#000000;fill-opacity:1;fill-rule:nonzero;stroke:none;stroke-width:3.77952814;stroke-linecap:butt;stroke-linejoin:miter;stroke-miterlimit:4;stroke-dasharray:none;stroke-dashoffset:0;stroke-opacity:1;paint-order:stroke fill markers" />
    <path
       style="opacity:1;vector-effect:none;fill:#000000;fill-opacity:1;fill-rule:nonzero;stroke:none;stroke-width:3.77952814;stroke-linecap:butt;stroke-linejoin:miter;stroke-miterlimit:4;stroke-dasharray:none;stroke-dashoffset:0;stroke-opacity:1;paint-order:stroke fill markers"
       d="m 48.985459,35.478168 c 1.027558,-0.491194 -0.480782,-2.502849 0.552465,-2.836448 0.625168,-0.201839 2.283372,-0.490898 2.589634,0.222426 0.344313,0.80195 0.458853,2.108575 -0.152439,2.79169 -0.941615,1.052229 -2.013472,-0.16096 -2.98966,-0.177668 z"
       id="path19276-7" />
  </g>
</svg>
