<?xml version="1.0" encoding="UTF-8" standalone="no"?>
<svg
   version="1.1"
   id="svg10975"
   width="49.999763"
   height="68.972"
   viewBox="0 0 49.999766 68.972001"
   sodipodi:docname="Music6.svg"
   inkscape:version="1.3.2 (091e20ef0f, 2023-11-25, custom)"
   xmlns:inkscape="http://www.inkscape.org/namespaces/inkscape"
   xmlns:sodipodi="http://sodipodi.sourceforge.net/DTD/sodipodi-0.dtd"
   xmlns="http://www.w3.org/2000/svg"
   xmlns:svg="http://www.w3.org/2000/svg"
   xmlns:rdf="http://www.w3.org/1999/02/22-rdf-syntax-ns#"
   xmlns:cc="http://creativecommons.org/ns#"
   xmlns:dc="http://purl.org/dc/elements/1.1/">
  <sodipodi:namedview
     id="namedview1"
     pagecolor="#ffffff"
     bordercolor="#000000"
     borderopacity="0.25"
     inkscape:showpageshadow="2"
     inkscape:pageopacity="0.0"
     inkscape:pagecheckerboard="0"
     inkscape:deskcolor="#d1d1d1"
     inkscape:zoom="1.0819608"
     inkscape:cx="-61.462486"
     inkscape:cy="166.36462"
     inkscape:window-width="2560"
     inkscape:window-height="1381"
     inkscape:window-x="0"
     inkscape:window-y="27"
     inkscape:window-maximized="1"
     inkscape:current-layer="svg10975" />
  <metadata
     id="metadata10981">
    <rdf:RDF>
      <cc:Work
         rdf:about="">
        <dc:format>image/svg+xml</dc:format>
        <dc:type
           rdf:resource="http://purl.org/dc/dcmitype/StillImage" />
        <dc:title />
      </cc:Work>
    </rdf:RDF>
  </metadata>
  <defs
     id="defs10979" />
  <rect
     style="opacity:1;vector-effect:none;fill:none;fill-opacity:1;fill-rule:nonzero;stroke:none;stroke-width:3.77952766;stroke-linecap:butt;stroke-linejoin:miter;stroke-miterlimit:4;stroke-dasharray:none;stroke-dashoffset:0;stroke-opacity:1;paint-order:stroke fill markers"
     id="rect11532"
     width="49.999763"
     height="68.972"
     x="-275.84506"
     y="2.7137265" />
  <rect
     style="opacity:1;vector-effect:none;fill:none;fill-opacity:1;fill-rule:nonzero;stroke:none;stroke-width:3.77952766;stroke-linecap:butt;stroke-linejoin:miter;stroke-miterlimit:4;stroke-dasharray:none;stroke-dashoffset:0;stroke-opacity:1;paint-order:stroke fill markers"
     id="rect11530"
     width="49.999668"
     height="66.944"
     x="26.417896"
     y="-187.50783" />
  <path
     id="path19203-4"
     d="m 28.570584,-0.05753612 c -2.09019,-0.02646 -4.172883,0.302414 -6.203125,0.818359 -2.944291,0.74823402 -5.813004,1.90098902 -8.347657,3.62500002 -1.566171,1.065274 -2.992836,2.3402833 -4.3437498,3.6855472 -1.892467,1.8845536 -3.657016,3.9308549 -5.019531,6.2558589 -1.08189,1.846144 -1.898342,3.850095 -2.537109,5.90625 -1.0108625,3.253903 -1.57917853,6.646136 -1.80468753,10.056641 -0.165982,2.510279 -0.147465,5.0334 0,7.544922 0.196162,3.340884 0.623104,6.683587 1.57812453,9.880859 1.012496,3.389692 2.614648,6.585698 4.681641,9.414063 1.784802,2.44223 3.9293518,4.624153 6.4296868,6.257812 1.981044,1.294367 4.168436,2.234606 6.429688,2.865235 6.70105,1.868824 14.102978,0.92253 20.136719,-2.63086 4.247926,-2.501689 7.85536,-6.339647 9.644532,-11.052734 1.352343,-3.56238 1.614737,-7.634364 0.33789,-11.226563 -0.950425,-2.673871 -2.707274,-4.988145 -4.794922,-6.841797 -1.87904,-1.668426 -4.043743,-2.995102 -6.373047,-3.859375 -2.501626,-0.928212 -5.190404,-1.319138 -7.839843,-1.111328 -3.548488,0.278328 -6.928791,1.60351 -10.376954,2.515625 -0.539817,0.142793 -1.084322,0.274635 -1.636719,0.34961 -0.392462,0.05327 -0.797235,0.07641 -1.179688,-0.0293 -0.191225,-0.05286 -0.374509,-0.137172 -0.533203,-0.259766 -0.158694,-0.122594 -0.290977,-0.283998 -0.373047,-0.470703 -0.134754,-0.306561 -0.126192,-0.657513 -0.113281,-0.994141 0.107409,-2.800735 0.306224,-5.603442 0.789063,-8.361328 0.587494,-3.355651 1.59288,-6.625702 2.876953,-9.765625 0.430267,-1.052126 0.894257,-2.097109 1.515626,-3.0410152 0.621368,-0.9439063 1.410758,-1.7878437 2.376953,-2.3378906 0.481237,-0.2739648 0.998167,-0.4724237 1.521484,-0.6445313 0.476468,-0.1567 0.966934,-0.293294 1.466797,-0.291016 0.609782,0.0028 1.19966,0.212169 1.804688,0.291016 0.198582,0.02588 0.400215,0.03753 0.595703,0.082031 0.195488,0.0445 0.388916,0.1257283 0.533203,0.2695312 0.118297,0.1179001 0.19778,0.2716489 0.248047,0.4335938 0.05027,0.1619448 0.07232,0.332802 0.08984,0.5019531 0.05725,0.5527382 0.05729,1.1331753 -0.169922,1.6367188 -0.183701,0.4071274 -0.500852,0.7313452 -0.732422,1.1113282 -0.290512,0.476703 -0.438943,1.029465 -0.564453,1.578125 -0.241524,1.055809 -0.414312,2.132374 -0.451172,3.216797 -0.04742,1.395141 0.137617,2.814971 0.677734,4.09375 0.693285,1.641415 1.944797,2.982482 3.382813,3.976562 1.143872,0.790743 2.426248,1.384691 3.777343,1.648438 1.351095,0.263747 2.772328,0.187774 4.0625,-0.304688 1.077146,-0.411149 2.033921,-1.095772 2.990235,-1.753906 0.694034,-0.477633 1.402671,-0.950215 1.974609,-1.578125 0.507571,-0.557243 0.894263,-1.224383 1.183594,-1.929687 0.550967,-1.343082 0.748537,-2.813503 0.845707,-4.269529 0.08899,-1.333462 0.09539,-2.698219 -0.28125,-3.976562 -0.322959,-1.096155 -0.914312,-2.0845313 -1.523438,-3.0410157 -0.753249,-1.1827999 -1.555254,-2.3516585 -2.59375,-3.2734375 -1.123796,-0.997493 -2.480521,-1.666608 -3.835937,-2.28125 -1.472738,-0.667845 -2.9686,-1.28714 -4.511719,-1.75390602 -1.887066,-0.570802 -3.84495,-0.910669 -5.810547,-0.9355469 z M 27.201444,35.215901 c 0.688752,0.02684 1.364306,0.157386 1.990234,0.455078 1.267934,0.60303 2.166799,1.821885 2.820313,3.09961 1.08603,2.123362 1.63112,4.506903 1.861328,6.898437 0.224668,2.333983 0.157747,4.696731 -0.169922,7.017578 -0.327108,2.316866 -0.950396,4.668314 -2.369141,6.490235 -0.829513,1.065245 -1.920871,1.920143 -3.158203,2.398437 -0.998061,0.385804 -2.087748,0.524648 -3.142578,0.371094 -1.05483,-0.153555 -2.072134,-0.602358 -2.892578,-1.306641 -0.725535,-0.62281 -1.285774,-1.430368 -1.748048,-2.28125 -0.714752,-1.315604 -1.208451,-2.748492 -1.578125,-4.208984 -0.573429,-2.265476 -0.852985,-4.62386 -0.677734,-6.958984 0.161745,-2.155144 0.70565,-4.26175 1.353515,-6.316407 0.255757,-0.81111 0.530854,-1.619095 0.919922,-2.371093 0.38907,-0.751999 0.899338,-1.449603 1.562501,-1.955079 0.909527,-0.69326 2.043467,-0.985201 3.158203,-1.169921 0.680016,-0.112685 1.38156,-0.188952 2.070313,-0.16211 z"
     style="opacity:1;vector-effect:none;fill:#000000;fill-opacity:1;fill-rule:nonzero;stroke:none;stroke-width:3.77952743;stroke-linecap:butt;stroke-linejoin:miter;stroke-miterlimit:4;stroke-dasharray:none;stroke-dashoffset:0;stroke-opacity:1;paint-order:stroke fill markers" />
</svg>
