<?xml version="1.0" encoding="UTF-8" standalone="no"?>
<svg
   viewBox="0 0 86.158902 71.499917"
   height="71.499916"
   width="86.158897"
   id="svg10975"
   version="1.1"
   sodipodi:docname="Music16.svg"
   inkscape:version="1.3.2 (091e20ef0f, 2023-11-25, custom)"
   xmlns:inkscape="http://www.inkscape.org/namespaces/inkscape"
   xmlns:sodipodi="http://sodipodi.sourceforge.net/DTD/sodipodi-0.dtd"
   xmlns="http://www.w3.org/2000/svg"
   xmlns:svg="http://www.w3.org/2000/svg"
   xmlns:rdf="http://www.w3.org/1999/02/22-rdf-syntax-ns#"
   xmlns:cc="http://creativecommons.org/ns#"
   xmlns:dc="http://purl.org/dc/elements/1.1/">
  <sodipodi:namedview
     pagecolor="#ffffff"
     bordercolor="#666666"
     borderopacity="1"
     objecttolerance="10"
     gridtolerance="10"
     guidetolerance="10"
     inkscape:pageopacity="0"
     inkscape:pageshadow="2"
     inkscape:window-width="2560"
     inkscape:window-height="1381"
     id="namedview20171"
     showgrid="false"
     inkscape:zoom="1.753146"
     inkscape:cx="-162.8501"
     inkscape:cy="93.546116"
     inkscape:window-x="0"
     inkscape:window-y="27"
     inkscape:window-maximized="1"
     inkscape:current-layer="svg10975"
     inkscape:showpageshadow="2"
     inkscape:pagecheckerboard="0"
     inkscape:deskcolor="#d1d1d1" />
  <metadata
     id="metadata10981">
    <rdf:RDF>
      <cc:Work
         rdf:about="">
        <dc:format>image/svg+xml</dc:format>
        <dc:type
           rdf:resource="http://purl.org/dc/dcmitype/StillImage" />
        <dc:title />
      </cc:Work>
    </rdf:RDF>
  </metadata>
  <defs
     id="defs10979" />
  <rect
     y="130.06868"
     x="-904.77881"
     height="68.972"
     width="49.999763"
     id="rect11532"
     style="opacity:1;vector-effect:none;fill:none;fill-opacity:1;fill-rule:nonzero;stroke:none;stroke-width:3.77952766;stroke-linecap:butt;stroke-linejoin:miter;stroke-miterlimit:4;stroke-dasharray:none;stroke-dashoffset:0;stroke-opacity:1;paint-order:stroke fill markers" />
  <rect
     y="-59.862522"
     x="-329.52347"
     height="66.944"
     width="49.999668"
     id="rect11530"
     style="opacity:1;vector-effect:none;fill:none;fill-opacity:1;fill-rule:nonzero;stroke:none;stroke-width:3.77952766;stroke-linecap:butt;stroke-linejoin:miter;stroke-miterlimit:4;stroke-dasharray:none;stroke-dashoffset:0;stroke-opacity:1;paint-order:stroke fill markers" />
  <path
     style="opacity:1;vector-effect:none;fill:#000000;fill-opacity:1;fill-rule:nonzero;stroke:none;stroke-width:3.7795279;stroke-linecap:butt;stroke-linejoin:miter;stroke-miterlimit:4;stroke-dasharray:none;stroke-dashoffset:0;stroke-opacity:1;paint-order:stroke fill markers"
     d="M 1.5519912,22.399178 11.868036,-0.01051111 26.323621,0.06067629 V 55.907025 l 0.131422,1.636265 0.591368,1.422837 0.985605,0.711423 1.182724,0.711414 1.97122,0.853703 1.248451,0.284567 0.328521,0.426846 -0.06564,5.193354 -29.5682636,-0.07119 -0.06564,-4.908785 0.394238,-0.711415 0.8542026,-0.355706 2.1026232,-0.355707 1.3798632,-0.640284 1.4455591,-1.351688 0.394239,-1.06714 0.4599455,-35.855487 -0.5256505,-0.569135 -0.459955,0.213428 -3.4167693,3.130251 -1.0513221,0.284568 -2.8254023,-1.707405 z"
     id="path12116-0" />
  <path
     style="opacity:1;vector-effect:none;fill:#000000;fill-opacity:1;fill-rule:nonzero;stroke:none;stroke-width:3.77952743;stroke-linecap:butt;stroke-linejoin:miter;stroke-miterlimit:4;stroke-dasharray:none;stroke-dashoffset:0;stroke-opacity:1;paint-order:stroke fill markers"
     d="M 61.943359 -0.005859375 C 59.853169 -0.032315075 57.770476 0.29655422 55.740234 0.8125 C 52.795944 1.5607341 49.927231 2.7134884 47.392578 4.4375 C 45.826407 5.5027734 44.399742 6.777783 43.048828 8.1230469 C 41.156361 10.007601 39.391812 12.053902 38.029297 14.378906 C 36.947407 16.22505 36.130955 18.229001 35.492188 20.285156 C 34.481325 23.539059 33.913009 26.931292 33.6875 30.341797 C 33.521518 32.852076 33.540035 35.375197 33.6875 37.886719 C 33.883662 41.227603 34.310604 44.570306 35.265625 47.767578 C 36.278121 51.15727 37.880273 54.353276 39.947266 57.181641 C 41.732068 59.623871 43.876618 61.805794 46.376953 63.439453 C 48.357997 64.73382 50.545389 65.674059 52.806641 66.304688 C 59.50769 68.173512 66.909618 67.227218 72.943359 63.673828 C 77.191285 61.172139 80.798719 57.334181 82.587891 52.621094 C 83.940234 49.058714 84.202628 44.98673 82.925781 41.394531 C 81.975356 38.72066 80.218507 36.406386 78.130859 34.552734 C 76.251819 32.884308 74.087116 31.557632 71.757812 30.693359 C 69.256186 29.765147 66.567408 29.374221 63.917969 29.582031 C 60.369481 29.860359 56.989178 31.185541 53.541016 32.097656 C 53.001199 32.240449 52.456694 32.372291 51.904297 32.447266 C 51.511835 32.500536 51.107062 32.523679 50.724609 32.417969 C 50.533384 32.365109 50.3501 32.280797 50.191406 32.158203 C 50.032712 32.035609 49.900429 31.874205 49.818359 31.6875 C 49.683605 31.380939 49.692167 31.029987 49.705078 30.693359 C 49.812487 27.892624 50.011302 25.089917 50.494141 22.332031 C 51.081635 18.97638 52.087021 15.706329 53.371094 12.566406 C 53.801361 11.51428 54.265351 10.469297 54.886719 9.5253906 C 55.508087 8.5814843 56.297477 7.7375469 57.263672 7.1875 C 57.744909 6.9135352 58.261839 6.7150763 58.785156 6.5429688 C 59.261624 6.3862685 59.75209 6.2496748 60.251953 6.2519531 C 60.861735 6.2547331 61.451613 6.464122 62.056641 6.5429688 C 62.255223 6.5688477 62.456856 6.5805 62.652344 6.625 C 62.847832 6.6695 63.04126 6.7507283 63.185547 6.8945312 C 63.303844 7.0124313 63.383327 7.1661801 63.433594 7.328125 C 63.483864 7.4900698 63.505917 7.660927 63.523438 7.8300781 C 63.580688 8.3828163 63.580723 8.9632534 63.353516 9.4667969 C 63.169815 9.8739243 62.852664 10.198142 62.621094 10.578125 C 62.330582 11.054828 62.182151 11.60759 62.056641 12.15625 C 61.815117 13.212059 61.642329 14.288624 61.605469 15.373047 C 61.558049 16.768188 61.743086 18.188018 62.283203 19.466797 C 62.976488 21.108212 64.228 22.449279 65.666016 23.443359 C 66.809888 24.234102 68.092264 24.82805 69.443359 25.091797 C 70.794454 25.355544 72.215687 25.279571 73.505859 24.787109 C 74.583005 24.37596 75.53978 23.691337 76.496094 23.033203 C 77.190128 22.55557 77.898765 22.082988 78.470703 21.455078 C 78.978274 20.897835 79.364966 20.230695 79.654297 19.525391 C 80.20526 18.182306 80.40283 16.711885 80.5 15.255859 C 80.58899 13.922397 80.59539 12.55764 80.21875 11.279297 C 79.895791 10.183142 79.304438 9.1947656 78.695312 8.2382812 C 77.942063 7.0554813 77.140058 5.8866224 76.101562 4.9648438 C 74.977766 3.9673502 73.621041 3.2982355 72.265625 2.6835938 C 70.792887 2.015749 69.297025 1.3964532 67.753906 0.9296875 C 65.86684 0.35888549 63.908956 0.019018945 61.943359 -0.005859375 z M 60.574219 35.267578 C 61.262971 35.29442 61.938525 35.424964 62.564453 35.722656 C 63.832387 36.325686 64.731252 37.544541 65.384766 38.822266 C 66.470796 40.945628 67.015886 43.329169 67.246094 45.720703 C 67.470762 48.054686 67.403841 50.417434 67.076172 52.738281 C 66.749064 55.055147 66.125776 57.406595 64.707031 59.228516 C 63.877518 60.293761 62.78616 61.148659 61.548828 61.626953 C 60.550767 62.012757 59.46108 62.151601 58.40625 61.998047 C 57.35142 61.844492 56.334116 61.395689 55.513672 60.691406 C 54.788138 60.068596 54.227899 59.261038 53.765625 58.410156 C 53.050873 57.094552 52.557174 55.661664 52.1875 54.201172 C 51.614071 51.935696 51.334515 49.577312 51.509766 47.242188 C 51.671511 45.087044 52.215416 42.980438 52.863281 40.925781 C 53.119038 40.114671 53.394135 39.306686 53.783203 38.554688 C 54.172273 37.802689 54.682541 37.105085 55.345703 36.599609 C 56.25523 35.906349 57.38917 35.614408 58.503906 35.429688 C 59.183922 35.317003 59.885466 35.240736 60.574219 35.267578 z "
     id="path19203" />
</svg>
