<?xml version="1.0" encoding="UTF-8" standalone="no"?>
<svg
   version="1.1"
   id="svg10975"
   width="49.999763"
   height="68.972"
   viewBox="0 0 49.999766 68.972001"
   sodipodi:docname="Music9.svg"
   inkscape:version="1.3.2 (091e20ef0f, 2023-11-25, custom)"
   xmlns:inkscape="http://www.inkscape.org/namespaces/inkscape"
   xmlns:sodipodi="http://sodipodi.sourceforge.net/DTD/sodipodi-0.dtd"
   xmlns="http://www.w3.org/2000/svg"
   xmlns:svg="http://www.w3.org/2000/svg"
   xmlns:rdf="http://www.w3.org/1999/02/22-rdf-syntax-ns#"
   xmlns:cc="http://creativecommons.org/ns#"
   xmlns:dc="http://purl.org/dc/elements/1.1/">
  <sodipodi:namedview
     id="namedview1"
     pagecolor="#ffffff"
     bordercolor="#000000"
     borderopacity="0.25"
     inkscape:showpageshadow="2"
     inkscape:pageopacity="0.0"
     inkscape:pagecheckerboard="0"
     inkscape:deskcolor="#d1d1d1"
     inkscape:zoom="8.6556864"
     inkscape:cx="-25.474583"
     inkscape:cy="47.021112"
     inkscape:window-width="2560"
     inkscape:window-height="1381"
     inkscape:window-x="0"
     inkscape:window-y="27"
     inkscape:window-maximized="1"
     inkscape:current-layer="svg10975" />
  <metadata
     id="metadata10981">
    <rdf:RDF>
      <cc:Work
         rdf:about="">
        <dc:format>image/svg+xml</dc:format>
        <dc:type
           rdf:resource="http://purl.org/dc/dcmitype/StillImage" />
        <dc:title />
      </cc:Work>
    </rdf:RDF>
  </metadata>
  <defs
     id="defs10979" />
  <rect
     style="opacity:1;vector-effect:none;fill:none;fill-opacity:1;fill-rule:nonzero;stroke:none;stroke-width:3.77952766;stroke-linecap:butt;stroke-linejoin:miter;stroke-miterlimit:4;stroke-dasharray:none;stroke-dashoffset:0;stroke-opacity:1;paint-order:stroke fill markers"
     id="rect11532"
     width="49.999763"
     height="68.972"
     x="-410.173"
     y="1.6560261" />
  <rect
     style="opacity:1;vector-effect:none;fill:none;fill-opacity:1;fill-rule:nonzero;stroke:none;stroke-width:3.77952766;stroke-linecap:butt;stroke-linejoin:miter;stroke-miterlimit:4;stroke-dasharray:none;stroke-dashoffset:0;stroke-opacity:1;paint-order:stroke fill markers"
     id="rect11530"
     width="49.999668"
     height="66.944"
     x="26.417896"
     y="-187.50783" />
  <g
     id="layer2">
    <path
       style="opacity:1;vector-effect:none;fill:none;fill-opacity:1;fill-rule:nonzero;stroke:none;stroke-width:3.77952814;stroke-linecap:butt;stroke-linejoin:miter;stroke-miterlimit:4;stroke-dasharray:none;stroke-dashoffset:0;stroke-opacity:1;paint-order:stroke fill markers"
       d="m 30.193812,27.090707 c -0.828535,-0.03933 -1.627071,-0.346804 -2.35471,-0.756875 -0.72764,-0.410091 -1.395068,-0.922585 -2.076392,-1.409801 -1.813333,-1.296727 -3.73844,-2.422973 -5.532151,-3.748325 -1.669178,-1.233341 -3.235154,-2.65399 -4.410174,-4.389591 -0.852616,-1.259393 -1.501114,-2.728601 -1.49483,-4.263967 0.0061,-1.507395 0.667429,-2.9849777 1.724814,-4.0270908 0.864665,-0.8521718 1.969443,-1.4166109 3.120748,-1.7528831 1.151305,-0.3362721 2.352577,-0.4540178 3.548525,-0.4975489 2.040493,-0.074274 4.091651,0.064198 6.094322,0.4737741 2.209171,0.4518007 4.382404,1.2489203 6.209324,2.6057676 1.398989,1.0390251 2.601318,2.4463121 3.104662,4.1455291 0.522216,1.762959 0.253315,3.673694 -0.229965,5.448392 -0.404889,1.486827 -0.959449,2.936181 -1.724814,4.263987 -0.67133,1.164669 -1.524811,2.251185 -2.644713,2.961084 -0.633662,0.401658 -1.341046,0.674484 -2.069781,0.829109 -0.415728,0.08821 -0.840854,0.138571 -1.264865,0.118439 z"
       id="path19258" />
    <path
       style="opacity:1;vector-effect:none;fill:none;fill-opacity:1;fill-rule:nonzero;stroke:none;stroke-width:3.77952814;stroke-linecap:butt;stroke-linejoin:miter;stroke-miterlimit:4;stroke-dasharray:none;stroke-dashoffset:0;stroke-opacity:1;paint-order:stroke fill markers"
       d="m 18.235133,37.750635 c -0.360957,-0.07329 -0.738575,-0.04038 -1.090652,0.06964 -0.352059,0.110026 -0.679364,0.295454 -0.974248,0.522076 -0.589768,0.453226 -1.045585,1.062365 -1.499731,1.658715 -1.169888,1.536178 -2.38519,3.047888 -3.334627,4.737741 -0.975439,1.736116 -1.664257,3.680385 -1.724814,5.685309 -0.07189,2.380927 0.764346,4.753044 2.184764,6.632838 1.595033,2.110891 3.879751,3.598193 6.324306,4.500864 2.530576,0.934424 5.247318,1.274734 7.934138,1.184426 2.199831,-0.07396 4.457124,-0.457819 6.324307,-1.6582 1.797862,-1.15582 3.120517,-3.02344 3.794595,-5.093077 0.281604,-0.864623 0.456528,-1.771075 0.456913,-2.68307 0,-0.911995 -0.177557,-1.830364 -0.571915,-2.646904 -0.332071,-0.687589 -0.807875,-1.288274 -1.264846,-1.895096 -0.668217,-0.887349 -1.306722,-1.80366 -2.069781,-2.605748 -1.254852,-1.319037 -2.808317,-2.289984 -4.369527,-3.198 -1.732021,-1.007371 -3.496463,-1.955612 -5.289425,-2.842645 -1.327325,-0.812619 -2.712015,-1.525785 -4.139543,-2.131973 -0.224488,-0.09534 -0.451666,-0.188516 -0.689914,-0.236896 z"
       id="path19262" />
    <path
       id="path19203-4"
       d="m 22.066178,67.242966 c 2.067273,0.02635 4.127132,-0.301177 6.135114,-0.815011 2.91201,-0.745173 5.74927,-1.893212 8.256133,-3.61017 1.549,-1.060916 2.960023,-2.330709 4.296125,-3.67047 1.871718,-1.876843 3.616921,-3.914774 4.964497,-6.230266 1.070028,-1.838592 1.877529,-3.834345 2.509292,-5.882088 0.99978,-3.240592 1.561865,-6.618947 1.784902,-10.0155 0.164162,-2.500009 0.145848,-5.012808 0,-7.514056 C 49.818229,26.178189 49.395968,22.84916 48.451418,19.664968 47.450023,16.289143 45.865437,13.106212 43.821107,10.289419 42.055873,7.8571795 39.934836,5.6841826 37.461915,4.0572069 35.502591,2.7681351 33.339182,1.8317425 31.102722,1.2036935 24.475143,-0.65748526 17.154369,0.28493749 11.186782,3.8237907 6.9854318,6.3152454 3.4175497,10.137502 1.6479942,14.831308 0.31047839,18.379114 0.05096128,22.43444 1.3138089,26.011943 c 0.9400045,2.662933 2.6775914,4.967739 4.7423504,6.813808 1.8584382,1.6616 3.9994077,2.982849 6.3031717,3.843586 2.474198,0.924415 5.133496,1.313742 7.753887,1.106782 3.509582,-0.277189 6.852824,-1.59695 10.263181,-2.505334 0.533898,-0.142209 1.072433,-0.273511 1.618774,-0.348179 0.388159,-0.05305 0.788494,-0.0761 1.166754,0.02918 0.189128,0.05264 0.370403,0.136611 0.527357,0.258703 0.156954,0.122092 0.287786,0.282836 0.368957,0.468777 0.133276,0.305307 0.124808,0.654824 0.112039,0.990074 -0.106232,2.789278 -0.302867,5.580519 -0.780412,8.327123 -0.581053,3.341923 -1.575416,6.598596 -2.84541,9.725674 -0.42555,1.047822 -0.884453,2.08853 -1.499009,3.028574 -0.614555,0.940046 -1.39529,1.78053 -2.350892,2.328327 -0.475961,0.272844 -0.987223,0.470491 -1.504802,0.641894 -0.471244,0.156059 -0.956333,0.292094 -1.450715,0.289826 -0.603097,-0.0028 -1.186507,-0.211301 -1.784902,-0.289826 -0.196405,-0.02577 -0.395827,-0.03738 -0.589171,-0.08169 -0.193345,-0.04432 -0.384652,-0.125214 -0.527357,-0.268429 -0.117,-0.117417 -0.195612,-0.270537 -0.245328,-0.43182 -0.04972,-0.161281 -0.07153,-0.33144 -0.08886,-0.499899 -0.05662,-0.550477 -0.05666,-1.12854 0.168059,-1.630024 0.181687,-0.405461 0.495361,-0.728353 0.724392,-1.106781 0.287327,-0.474753 0.43413,-1.025254 0.558264,-1.571669 0.238876,-1.05149 0.40977,-2.123651 0.446226,-3.203637 0.0469,-1.389434 -0.136109,-2.803455 -0.670304,-4.077003 -0.685684,-1.6347 -1.923474,-2.970281 -3.345724,-3.960294 -1.13133,-0.787508 -2.399646,-1.379026 -3.735928,-1.641694 -1.336281,-0.262668 -2.741932,-0.187006 -4.017958,0.303441 -1.0653354,0.409467 -2.0116204,1.091289 -2.9574493,1.746731 -0.6864246,0.475679 -1.3872921,0.946328 -1.9529594,1.571669 -0.502006,0.554963 -0.8844583,1.219374 -1.1706171,1.921793 -0.5449261,1.337587 -0.74033,2.801993 -0.8364346,4.252062 -0.088014,1.328007 -0.094344,2.687181 0.2781664,3.960294 0.319418,1.091671 0.9042874,2.076005 1.506735,3.028576 0.7449903,1.177961 1.5382022,2.342037 2.5653121,3.260045 1.1114747,0.993412 2.4533229,1.65979 3.7938789,2.271918 1.456591,0.665112 2.936052,1.281874 4.462252,1.74673 1.866376,0.568467 3.802794,0.906944 5.74684,0.931719 z M 23.420307,32.113831 C 22.739106,32.087101 22.070959,31.957089 21.451894,31.660615 20.197862,31.060052 19.308852,29.846183 18.662503,28.573685 17.58838,26.45901 17.049266,24.08522 16.821582,21.70347 16.599378,19.379035 16.665565,17.025953 16.989641,14.7146 17.313163,12.407213 17.929617,10.065385 19.332807,8.2509171 20.153225,7.19003 21.232618,6.3386293 22.456384,5.862292 c 0.987118,-0.3842257 2.064857,-0.5225017 3.108122,-0.3695759 1.043265,0.1529268 2.049415,0.5998938 2.860864,1.3012956 0.71758,0.6202621 1.271677,1.4245164 1.728882,2.2719175 0.706916,1.3102228 1.195202,2.7372488 1.560823,4.1917648 0.567142,2.256208 0.843633,4.604944 0.670303,6.930515 -0.159971,2.146327 -0.697913,4.244315 -1.338675,6.290567 -0.252953,0.807792 -0.525034,1.612471 -0.909836,2.361393 -0.384804,0.748922 -0.889477,1.443673 -1.54537,1.947081 -0.899554,0.690424 -2.021062,0.98117 -3.123576,1.165135 -0.67256,0.112224 -1.366413,0.188179 -2.047614,0.161446 z"
       style="opacity:1;vector-effect:none;fill:#000000;fill-opacity:1;fill-rule:nonzero;stroke:none;stroke-width:3.77952743;stroke-linecap:butt;stroke-linejoin:miter;stroke-miterlimit:4;stroke-dasharray:none;stroke-dashoffset:0;stroke-opacity:1;paint-order:stroke fill markers" />
  </g>
</svg>
