<?xml version="1.0" encoding="UTF-8" standalone="no"?>
<svg
   version="1.1"
   id="svg10975"
   width="93.039642"
   height="71.79908"
   viewBox="0 0 93.039647 71.799081"
   sodipodi:docname="Music10.svg"
   inkscape:version="1.3.2 (091e20ef0f, 2023-11-25, custom)"
   xmlns:inkscape="http://www.inkscape.org/namespaces/inkscape"
   xmlns:sodipodi="http://sodipodi.sourceforge.net/DTD/sodipodi-0.dtd"
   xmlns="http://www.w3.org/2000/svg"
   xmlns:svg="http://www.w3.org/2000/svg"
   xmlns:rdf="http://www.w3.org/1999/02/22-rdf-syntax-ns#"
   xmlns:cc="http://creativecommons.org/ns#"
   xmlns:dc="http://purl.org/dc/elements/1.1/">
  <sodipodi:namedview
     id="namedview1"
     pagecolor="#ffffff"
     bordercolor="#000000"
     borderopacity="0.25"
     inkscape:showpageshadow="2"
     inkscape:pageopacity="0.0"
     inkscape:pagecheckerboard="0"
     inkscape:deskcolor="#d1d1d1"
     inkscape:zoom="0.7349376"
     inkscape:cx="-644.27238"
     inkscape:cy="146.95125"
     inkscape:window-width="2560"
     inkscape:window-height="1381"
     inkscape:window-x="0"
     inkscape:window-y="27"
     inkscape:window-maximized="1"
     inkscape:current-layer="svg10975" />
  <metadata
     id="metadata10981">
    <rdf:RDF>
      <cc:Work
         rdf:about="">
        <dc:format>image/svg+xml</dc:format>
        <dc:type
           rdf:resource="http://purl.org/dc/dcmitype/StillImage" />
        <dc:title />
      </cc:Work>
    </rdf:RDF>
  </metadata>
  <defs
     id="defs10979" />
  <rect
     style="opacity:1;vector-effect:none;fill:none;fill-opacity:1;fill-rule:nonzero;stroke:none;stroke-width:3.77952766;stroke-linecap:butt;stroke-linejoin:miter;stroke-miterlimit:4;stroke-dasharray:none;stroke-dashoffset:0;stroke-opacity:1;paint-order:stroke fill markers"
     id="rect11532"
     width="49.999763"
     height="68.972"
     x="-854.58185"
     y="23.79855" />
  <rect
     style="opacity:1;vector-effect:none;fill:none;fill-opacity:1;fill-rule:nonzero;stroke:none;stroke-width:3.77952766;stroke-linecap:butt;stroke-linejoin:miter;stroke-miterlimit:4;stroke-dasharray:none;stroke-dashoffset:0;stroke-opacity:1;paint-order:stroke fill markers"
     id="rect11530"
     width="49.999668"
     height="66.944"
     x="-279.32651"
     y="-166.13264" />
  <path
     id="path12116-0"
     d="M 0.14335847,23.429795 10.91997,0.07175941 26.020933,0.14596281 V 58.355666 l 0.13729,1.705513 0.617769,1.483041 1.029608,0.741531 1.235528,0.74152 2.059226,0.889831 1.304189,0.296611 0.343188,0.44491 -0.06857,5.413136 -30.8883561,-0.0742 -0.068566,-5.116526 0.411839,-0.74152 0.8923388,-0.37076 2.1964957,-0.37076 1.441468,-0.667381 L 8.1744778,61.32172 8.5863171,60.209429 9.0667959,22.836579 8.5176772,22.243358 8.0371876,22.465818 4.4678742,25.728532 3.3696159,26.025143 0.4180716,24.24548 Z"
     style="opacity:1;vector-effect:none;fill:#000000;fill-opacity:1;fill-rule:nonzero;stroke:none;stroke-width:3.7795279;stroke-linecap:butt;stroke-linejoin:miter;stroke-miterlimit:4;stroke-dasharray:none;stroke-dashoffset:0;stroke-opacity:1;paint-order:stroke fill markers" />
  <path
     id="path19291-4"
     d="M 64.921061,-0.13002707 C 61.33912,0.05440371 57.809766,1.3065504 54.710344,3.4043079 c -3.099422,2.0977572 -5.767392,5.0324396 -7.805611,8.4653851 -1.673706,2.819002 -2.923255,5.961579 -3.853614,9.212516 -1.351804,4.72359 -2.039096,9.688779 -2.187413,14.66448 -0.176044,5.90591 0.426615,11.936594 2.499302,17.331315 2.683224,6.983799 7.833658,12.606381 13.955485,15.392931 5.394911,2.455673 11.584502,2.708629 16.975998,0.242818 6.507369,-2.97616 11.421916,-9.674354 14.058053,-17.210946 2.94681,-8.424792 3.273176,-17.966886 1.354313,-26.784572 C 88.004966,16.8976 84.415627,9.402442 78.771886,4.7180095 74.77357,1.3993183 69.827277,-0.38264341 64.921061,-0.13002707 Z m 1.132431,6.12645717 c 1.51344,0.059395 2.929432,1.0061941 3.956182,2.3015721 1.641168,2.0705468 2.346639,4.8993578 2.915852,7.6373188 2.413346,11.608358 3.29438,23.807615 1.249652,35.511452 -0.668737,3.827788 -1.723251,7.741941 -4.060843,10.544894 -0.515613,0.61826 -1.090811,1.176526 -1.739464,1.591799 -0.648653,0.415275 -1.374183,0.685248 -2.114151,0.711847 -1.0692,0.03843 -2.114062,-0.430593 -3.020513,-1.091637 -2.244811,-1.637067 -3.725397,-4.399149 -4.686715,-7.272054 -1.66564,-4.977776 -1.975055,-10.415684 -2.082752,-15.75612 -0.130649,-6.478557 0.0099,-12.983013 0.833101,-19.392146 0.511975,-3.986042 1.340813,-8.065263 3.437064,-11.2733449 0.64077,-0.9806291 1.399167,-1.8691674 2.300446,-2.5153339 0.901279,-0.6461663 1.954172,-1.0397674 3.012141,-0.9982471 z"
     style="opacity:1;vector-effect:none;fill:#000000;fill-opacity:1;fill-rule:nonzero;stroke:none;stroke-width:3.7795279;stroke-linecap:butt;stroke-linejoin:miter;stroke-miterlimit:4;stroke-dasharray:none;stroke-dashoffset:0;stroke-opacity:1;paint-order:stroke fill markers" />
</svg>
