<?xml version="1.0" encoding="UTF-8" standalone="no"?>
<svg
   viewBox="0 0 49.999766 68.972001"
   height="68.972"
   width="49.999763"
   id="svg10975"
   version="1.1"
   sodipodi:docname="Music3.svg"
   inkscape:version="1.3.2 (091e20ef0f, 2023-11-25, custom)"
   xmlns:inkscape="http://www.inkscape.org/namespaces/inkscape"
   xmlns:sodipodi="http://sodipodi.sourceforge.net/DTD/sodipodi-0.dtd"
   xmlns="http://www.w3.org/2000/svg"
   xmlns:svg="http://www.w3.org/2000/svg"
   xmlns:rdf="http://www.w3.org/1999/02/22-rdf-syntax-ns#"
   xmlns:cc="http://creativecommons.org/ns#"
   xmlns:dc="http://purl.org/dc/elements/1.1/">
  <sodipodi:namedview
     id="namedview1"
     pagecolor="#ffffff"
     bordercolor="#000000"
     borderopacity="0.25"
     inkscape:showpageshadow="2"
     inkscape:pageopacity="0.0"
     inkscape:pagecheckerboard="0"
     inkscape:deskcolor="#d1d1d1"
     inkscape:zoom="2.1639216"
     inkscape:cx="196.63374"
     inkscape:cy="81.333816"
     inkscape:window-width="2560"
     inkscape:window-height="1381"
     inkscape:window-x="0"
     inkscape:window-y="27"
     inkscape:window-maximized="1"
     inkscape:current-layer="svg10975" />
  <metadata
     id="metadata10981">
    <rdf:RDF>
      <cc:Work
         rdf:about="">
        <dc:format>image/svg+xml</dc:format>
        <dc:type
           rdf:resource="http://purl.org/dc/dcmitype/StillImage" />
        <dc:title />
      </cc:Work>
    </rdf:RDF>
  </metadata>
  <defs
     id="defs10979" />
  <rect
     y="0.42308021"
     x="-68.750526"
     height="68.972"
     width="49.999763"
     id="rect11532"
     style="opacity:1;vector-effect:none;fill:none;fill-opacity:1;fill-rule:nonzero;stroke:none;stroke-width:3.77952766;stroke-linecap:butt;stroke-linejoin:miter;stroke-miterlimit:4;stroke-dasharray:none;stroke-dashoffset:0;stroke-opacity:1;paint-order:stroke fill markers" />
  <rect
     y="-187.50783"
     x="26.417896"
     height="66.944"
     width="49.999668"
     id="rect11530"
     style="opacity:1;vector-effect:none;fill:none;fill-opacity:1;fill-rule:nonzero;stroke:none;stroke-width:3.77952766;stroke-linecap:butt;stroke-linejoin:miter;stroke-miterlimit:4;stroke-dasharray:none;stroke-dashoffset:0;stroke-opacity:1;paint-order:stroke fill markers" />
  <path
     id="path11545"
     d="m 16.149291,9.8200801 c 2.11436,1.3717799 3.54991,3.5603499 3.77587,6.0898699 0.49189,2.2082 -0.40393,4.56438 -1.40944,6.4674 -1.91107,1.68093 -4.44164,2.61463 -6.87185,3.20137 -2.8059398,-0.256 -5.9974298,-0.5861 -7.7907398,-3.05708 -1.80539,-1.85128 -2.29111,-4.61724 -2.63401,-7.08134 0.30758,-3.541 1.01106,-7.4687498 4.35896,-9.4229598 3.43872,-3.00864 7.9488598,-4.51167 12.4009898,-5.1697499 5.62287,-0.89755 11.35927,-0.34265 16.917625,0.6424199 3.51398,1.53214 7.19524,2.98428 9.81188,5.90552 1.70777,1.4177099 2.6643,3.5711898 3.58332,5.5392798 1.09096,2.2679 0.6905,4.8007 0.51905,7.21073 -0.65274,1.84354 -1.08456,3.56313 -2.58705,5.15014 -1.51188,2.04761 -3.09745,4.0422 -5.75235,5.09856 -1.05645,0.49636 -3.53908,0.90646 -3.83616,1.42883 2.66611,1.09899 5.45117,1.99014 7.58056,4.02683 1.82079,1.69658 3.86395,3.24764 4.69053,5.69585 1.22586,2.57339 1.43248,5.51625 1.12035,8.32829 -0.0672,2.1078 -0.93757,4.15823 -1.63053,6.10433 -1.71586,2.1527 -3.35391,4.3877 -5.79065,5.7781 -2.50732,2.04407 -5.46708,3.49976 -8.51117,4.51658 -2.933995,0.68438 -5.869935,1.34917 -8.902085,1.04718 -5.29561,0.14477 -10.71735,-0.51364 -15.3985598,-3.16639 -4.7777,-1.83306 -9.40227002,-5.86797 -9.50651002,-11.34627 -0.55178,-2.01826 -0.13161,-4.25165 0.68497,-6.12035 1.53525002,-3.05375 4.81242002,-4.83538 8.16394002,-4.978 2.5729398,-0.57659 5.2095598,0.50711 7.3494398,1.85838 1.27725,1.20478 2.41195,2.48859 2.56861,4.31454 0.55985,2.31125 0.55319,4.99578 -0.51259,7.12361 -0.89703,1.66285 -2.87396,3.30648 -1.97906,5.32464 1.4275,0.8502 2.83983,1.76249 4.57322,1.35966 1.93567,-0.0366 4.00467,-0.30153 5.75992,-1.06775 2.63329,-1.52441 4.833485,-3.84535 5.656775,-6.82737 1.63545,-3.69356 1.50035,-8.07189 -0.61491,-11.56502 -1.639035,-2.28535 -3.740755,-4.52661 -6.337665,-5.69211 -3.37941,-1.23343 -6.96384,-1.7092 -10.52537,-2.08258 l 0.16534,-5.04276 c 3.48413,-0.23793 7.14266,-0.32224 10.4062,-1.60704 1.99641,-0.86279 3.96509,-2.21643 5.02106,-4.12807 0.862825,-1.7279 1.568715,-3.4897 1.316615,-5.45843 0.19077,-2.49869 -0.51558,-5.01405 -1.289365,-7.34559 -0.8041,-1.9822999 -2.50956,-3.2998898 -4.28754,-4.3479198 -3.04606,-1.2112 -6.47574,-1.26377 -9.57072,-0.22566 -1.53327,0.25382 -2.24684,2.2220799 -0.92478,3.2031499 l 0.15082,0.20109 z"
     style="opacity:1;vector-effect:none;fill:#000000;fill-opacity:1;fill-rule:nonzero;stroke:none;stroke-width:3.77952743;stroke-linecap:butt;stroke-linejoin:miter;stroke-miterlimit:4;stroke-dasharray:none;stroke-dashoffset:0;stroke-opacity:1;paint-order:stroke fill markers" />
  <rect
     style="opacity:1;vector-effect:none;fill:none;fill-opacity:1;fill-rule:nonzero;stroke:none;stroke-width:3.77952766;stroke-linecap:butt;stroke-linejoin:miter;stroke-miterlimit:4;stroke-dasharray:none;stroke-dashoffset:0;stroke-opacity:1;paint-order:stroke fill markers"
     id="rect11530-0"
     width="49.999668"
     height="66.944"
     x="487.67221"
     y="27.024225" />
</svg>
