<?xml version="1.0" encoding="UTF-8" standalone="no"?>
<svg
   viewBox="0 0 49.999766 68.972001"
   height="68.972"
   width="49.999763"
   id="svg10975"
   version="1.1"
   sodipodi:docname="Music5.svg"
   inkscape:version="1.3.2 (091e20ef0f, 2023-11-25, custom)"
   xmlns:inkscape="http://www.inkscape.org/namespaces/inkscape"
   xmlns:sodipodi="http://sodipodi.sourceforge.net/DTD/sodipodi-0.dtd"
   xmlns="http://www.w3.org/2000/svg"
   xmlns:svg="http://www.w3.org/2000/svg"
   xmlns:rdf="http://www.w3.org/1999/02/22-rdf-syntax-ns#"
   xmlns:cc="http://creativecommons.org/ns#"
   xmlns:dc="http://purl.org/dc/elements/1.1/">
  <sodipodi:namedview
     id="namedview1"
     pagecolor="#ffffff"
     bordercolor="#000000"
     borderopacity="0.25"
     inkscape:showpageshadow="2"
     inkscape:pageopacity="0.0"
     inkscape:pagecheckerboard="0"
     inkscape:deskcolor="#d1d1d1"
     inkscape:zoom="2.1639216"
     inkscape:cx="25.185755"
     inkscape:cy="34.197173"
     inkscape:window-width="2560"
     inkscape:window-height="1381"
     inkscape:window-x="0"
     inkscape:window-y="27"
     inkscape:window-maximized="1"
     inkscape:current-layer="svg10975" />
  <metadata
     id="metadata10981">
    <rdf:RDF>
      <cc:Work
         rdf:about="">
        <dc:format>image/svg+xml</dc:format>
        <dc:type
           rdf:resource="http://purl.org/dc/dcmitype/StillImage" />
        <dc:title />
      </cc:Work>
    </rdf:RDF>
  </metadata>
  <defs
     id="defs10979" />
  <rect
     y="0.59832573"
     x="-203.92143"
     height="68.972"
     width="49.999763"
     id="rect11532"
     style="opacity:1;vector-effect:none;fill:none;fill-opacity:1;fill-rule:nonzero;stroke:none;stroke-width:3.77952766;stroke-linecap:butt;stroke-linejoin:miter;stroke-miterlimit:4;stroke-dasharray:none;stroke-dashoffset:0;stroke-opacity:1;paint-order:stroke fill markers" />
  <rect
     y="-187.50783"
     x="26.417896"
     height="66.944"
     width="49.999668"
     id="rect11530"
     style="opacity:1;vector-effect:none;fill:none;fill-opacity:1;fill-rule:nonzero;stroke:none;stroke-width:3.77952766;stroke-linecap:butt;stroke-linejoin:miter;stroke-miterlimit:4;stroke-dasharray:none;stroke-dashoffset:0;stroke-opacity:1;paint-order:stroke fill markers" />
  <path
     transform="matrix(1.2205361,0,0,1.0237965,-86.98658,189.29409)"
     d="m 108.50066,-184.33717 c -3.417,2.272 -7.64883,0.89171 -11.448688,1.24458 -7.734018,-0.0659 -15.468037,-0.13167 -23.202055,-0.19751 l -0.888482,33.28187 c 2.420291,1.14796 5.56086,0.35832 6.159635,-2.55269 1.092771,-3.01758 4.265065,-4.28138 7.249051,-3.77146 3.716161,-0.21815 6.252621,2.4179 7.925812,5.46138 2.797726,3.77313 3.26736,8.65937 3.301021,13.22441 0.214785,3.11111 -0.929288,6.14639 -2.187954,8.9012 -1.360329,2.21078 -3.526857,3.85672 -6.178574,3.93098 -2.273311,0.54921 -6.138722,0.60749 -6.712862,-2.30864 -0.398616,-2.87546 3.231643,-3.25046 3.994534,-5.63166 1.899428,-3.84103 0.519182,-8.69888 -2.396111,-11.60021 -2.86206,-2.79203 -8.135311,-2.4551 -10.210328,1.13793 -2.588605,4.12283 -2.630194,9.40391 -1.205787,13.93675 0.563649,3.99058 4.604649,5.83908 7.73749,7.53299 5.837535,1.42081 12.141731,2.73844 17.944787,0.42358 4.558911,-2.13728 8.492841,-5.71961 10.882751,-10.20787 1.59669,-2.45551 2.15666,-4.29979 2.73272,-7.82238 0.24221,-3.81099 0.25399,-7.34975 -0.60181,-10.31576 -0.64066,-4.20221 -3.74205,-7.46006 -6.79707,-10.12153 -3.16636,-2.51816 -7.462206,-2.74539 -11.334273,-2.94978 -5.149344,-0.0104 -10.713558,0.60943 -14.745359,4.18604 -1.433645,-0.51928 -1.481969,-4.66775 -1.150707,-6.66425 0.113382,-2.57981 2.077734,-5.12022 4.841558,-4.58157 8.010392,0.0315 16.037712,0.17306 24.051431,-0.0685 3.0427,-0.44208 3.16021,-1.43668 3.12847,-6.47866 -0.2609,-2.53712 0.99544,-6.24087 -0.69453,-7.90735 l -0.13876,-0.0584 -0.0559,-0.0235 z"
     id="path12798"
     style="opacity:1;vector-effect:none;fill:#000000;fill-opacity:1;fill-rule:nonzero;stroke:none;stroke-width:3.38107944;stroke-linecap:butt;stroke-linejoin:miter;stroke-miterlimit:4;stroke-dasharray:none;stroke-dashoffset:0;stroke-opacity:1;paint-order:stroke fill markers" />
</svg>
