<?xml version="1.0" encoding="UTF-8" standalone="no"?>
<svg
   viewBox="0 0 49.999766 68.972001"
   height="68.972"
   width="49.999763"
   id="svg10975"
   version="1.1"
   sodipodi:docname="Music7.svg"
   inkscape:version="1.3.2 (091e20ef0f, 2023-11-25, custom)"
   xmlns:inkscape="http://www.inkscape.org/namespaces/inkscape"
   xmlns:sodipodi="http://sodipodi.sourceforge.net/DTD/sodipodi-0.dtd"
   xmlns="http://www.w3.org/2000/svg"
   xmlns:svg="http://www.w3.org/2000/svg"
   xmlns:rdf="http://www.w3.org/1999/02/22-rdf-syntax-ns#"
   xmlns:cc="http://creativecommons.org/ns#"
   xmlns:dc="http://purl.org/dc/elements/1.1/">
  <sodipodi:namedview
     id="namedview1"
     pagecolor="#ffffff"
     bordercolor="#000000"
     borderopacity="0.25"
     inkscape:showpageshadow="2"
     inkscape:pageopacity="0.0"
     inkscape:pagecheckerboard="0"
     inkscape:deskcolor="#d1d1d1"
     inkscape:zoom="1.5301236"
     inkscape:cx="-191.16102"
     inkscape:cy="126.78714"
     inkscape:window-width="2560"
     inkscape:window-height="1381"
     inkscape:window-x="0"
     inkscape:window-y="27"
     inkscape:window-maximized="1"
     inkscape:current-layer="svg10975" />
  <metadata
     id="metadata10981">
    <rdf:RDF>
      <cc:Work
         rdf:about="">
        <dc:format>image/svg+xml</dc:format>
        <dc:type
           rdf:resource="http://purl.org/dc/dcmitype/StillImage" />
        <dc:title />
      </cc:Work>
    </rdf:RDF>
  </metadata>
  <defs
     id="defs10979" />
  <rect
     y="2.7137265"
     x="-341.84555"
     height="68.972"
     width="49.999763"
     id="rect11532"
     style="opacity:1;vector-effect:none;fill:none;fill-opacity:1;fill-rule:nonzero;stroke:none;stroke-width:3.77952766;stroke-linecap:butt;stroke-linejoin:miter;stroke-miterlimit:4;stroke-dasharray:none;stroke-dashoffset:0;stroke-opacity:1;paint-order:stroke fill markers" />
  <rect
     y="-187.50783"
     x="26.417896"
     height="66.944"
     width="49.999668"
     id="rect11530"
     style="opacity:1;vector-effect:none;fill:none;fill-opacity:1;fill-rule:nonzero;stroke:none;stroke-width:3.77952766;stroke-linecap:butt;stroke-linejoin:miter;stroke-miterlimit:4;stroke-dasharray:none;stroke-dashoffset:0;stroke-opacity:1;paint-order:stroke fill markers" />
  <path
     id="path19249"
     d="M 4.2827015,0.15793321 0.38729156,18.918027 1.0189421,19.816812 1.7561085,19.92902 2.9138936,19.030598 4.3878696,16.559035 c 0,0 36.3562514,-1.272858 34.5315874,0.561786 -1.824655,1.834634 -3.544597,3.295462 -5.474536,5.50455 -1.929935,2.2091 -4.281563,4.568454 -5.790375,6.627762 -1.508821,2.059319 -3.123559,3.857125 -4.527087,6.178557 -1.403546,2.321431 -2.702432,4.081646 -4.211253,6.964759 -1.508812,2.883112 -3.43901,5.878976 -4.526713,8.649757 -1.087703,2.770771 -2.772639,5.654683 -3.263759,8.313121 -0.456534,2.471191 -1.2483004,6.754436 -1.3701996,7.413965 H 30.828602 c 0.07393,-3.464245 -0.360739,-6.157686 0.405529,-10.671742 0.80732,-4.755756 1.543625,-11.757859 2.421117,-14.266888 0.8775,-2.509029 1.579144,-5.654083 2.632109,-7.526545 1.052956,-1.872463 1.824557,-3.669413 3.158261,-5.616769 1.333704,-1.947348 3.087983,-3.894201 4.000578,-5.841549 0.912595,-1.947358 2.737268,-5.841558 2.737268,-5.841558 L 49.236575,0.49494986 Z"
     style="opacity:1;vector-effect:none;fill:#000000;fill-opacity:1;fill-rule:nonzero;stroke:none;stroke-width:3.7795279;stroke-linecap:butt;stroke-linejoin:miter;stroke-miterlimit:4;stroke-dasharray:none;stroke-dashoffset:0;stroke-opacity:1;paint-order:stroke fill markers" />
</svg>
